<svg xmlns="http://www.w3.org/2000/svg" width="1033.604" height="1012.599" viewBox="662.662 3220.742 1033.604 1012.599"><g data-name="Contact Illustration"><path d="M805 3731l769.32-510.258 59.17 592.164L1085 4174.333 908.667 4114 805 3731z" fill="#54b192" fill-rule="evenodd" data-name="Path 255"/><path d="M685.405 3973.285a265 261-5 11.009.1z" fill="#54b192" fill-rule="evenodd" data-name="Ellipse 57"/><g data-name="Illustration"><g data-name="Group 255" transform="translate(736.85 3750.112)" clip-path="url(&quot;#a&quot;)"><g data-name="Group 144"><g data-name="Group 143"><g data-name="Group 142"><g data-name="Group 141" clip-path="url(&quot;#b&quot;)"><path d="M500.931 256.295a83.006 83.006 0 01-7.224 13.894 59.755 59.755 0 01-4.377 6.019.322.322 0 01-.048.052H0l.066-.052c.44-.344 3.025-2.435 7.044-6.019a279.298 279.298 0 0010.566-9.919c33.235-32.689 97.077-110.065 43.907-180.946C12.156 13.43 65.374 1.473 100.48.077a100.292 100.292 0 0139.562 6.467c16.219 6.164 45.862 15.612 84.481 19.944a369.877 369.877 0 0065.379 1.528c.603-.035 1.21-.08 1.822-.123a365.69 365.69 0 0060.193-9.312c1.28-.312 2.544-.607 3.804-.902 65.876-15.242 126.605 36.704 111.42 95.408-5.613 21.714-4.187 44.858 14.529 63.582 30.642 30.563 26.93 60.664 19.261 79.626" fill="#38d29f" fill-rule="evenodd" data-name="Path 329"/></g></g></g></g><g data-name="Group 145"><path d="M500.931 256.295a83.002 83.002 0 01-7.224 13.894 59.755 59.755 0 01-4.376 6.019H.066c.44-.344 3.025-2.435 7.044-6.019a279.136 279.136 0 0010.567-9.919l51.567-10.654a10.028 10.028 0 012.025-.207l54.975-.08h.058l27.23-.034h.061l22.982-.027h30.453l63.142-.088h27.168l10.844-.123h3.583l31.54-.044h14.917l36.43-.049h10.849l34.507-.048 29.128-.035c.811 0 1.62.096 2.408.286l29.387 7.128z" fill="#454a69" fill-rule="evenodd" data-name="Path 330"/></g><g data-name="Group 149"><g data-name="Group 148"><g data-name="Group 147" transform="translate(.066 270.19)" clip-path="url(&quot;#c&quot;)"><g data-name="Group 146"><path d="M7.044 0h486.597a59.75 59.75 0 01-4.377 6.018H0C.431 5.653 3.016 3.562 7.044 0" fill-rule="evenodd" data-name="Path 331"/></g></g></g></g><g data-name="Group 150"><path d="M322.807 133.269l-.978.189-44.184 8.488c-12.833 2.466-25.852 4.944-38.888 3.998-9.444-.687-18.266-3.487-27.34-5.944-5.13-1.391-10.566-1.946-12.305-7.687-2.4-7.924 1.505-19.657 2.425-27.688.881-7.88 1.4-15.959-.167-23.747a42.238 42.238 0 00-1.373-5.169c-1.572-4.662-4.042-9.51-2.708-14.242 1.052-3.756 4.262-6.437 7.264-8.92 5.882-4.843 11.887-10.271 14.22-17.531 1.145-3.522 1.361-7.313 2.594-10.808 2.337-6.648 8.21-11.619 14.744-14.252 6.533-2.632 13.718-3.191 20.767-3.191 6.224 0 12.44.413 18.61 1.237 6.727.88 13.516 2.329 19.428 5.666 5.913 3.337 10.897 8.805 12.275 15.47 1.95 9.427-3.465 19.464-.56 28.617 1.462 4.628 4.844 8.365 7.19 12.6a30.013 30.013 0 012.201 23.334c-2.808 8.704-9.685 17.51-6.163 25.95 2.24 5.366 7.964 8.232 11.953 12.485.355.382.687.763.995 1.145" fill="#454a69" fill-rule="evenodd" data-name="Path 332"/></g><g data-name="Group 154"><g data-name="Group 153"><g data-name="Group 152" transform="translate(198.343 60.186)" clip-path="url(&quot;#d&quot;)"><g data-name="Group 151"><path d="M123.486 71.974v1.298l-44.184 8.489c-12.834 2.465-25.852 4.944-38.888 3.997-9.444-.687-18.267-3.487-27.34-5.943-5.13-1.392-10.567-1.946-12.306-7.687-2.4-7.925 1.506-19.658 2.426-27.688C4.074 36.56 17.63 7.788 16.063 0L97.07 3.522c.545 4.301 21.955 25.892 20.621 30.017-2.809 8.704-9.685 17.51-6.163 25.949 2.245 5.367 7.968 8.233 11.957 12.486" fill-rule="evenodd" data-name="Path 333"/></g></g></g></g><g data-name="Group 155"><path d="M239.06 110.375c.48 2.725.736 5.724-.655 8.1-1.854 3.188-5.895 4.205-9.51 4.927l-12.547 2.51c-.854.172-1.761.365-2.4.95-.752.674-1.008 1.74-1.118 2.744-.506 4.543 1.1 9.02 2.567 13.348 2.963 8.766 5.45 17.716 9.197 26.174 3.746 8.457 8.889 16.532 16.228 22.184 7.339 5.653 17.051 8.665 26.037 6.455 7.828-1.924 14.247-7.45 19.78-13.31 4.566-4.842 8.837-10.125 11.051-16.408 1.528-4.314 2.025-8.91 2.505-13.463l2.228-20.939c.348-3.275.577-6.96-1.55-9.474-.933-1.105-2.201-1.84-3.496-2.523-4.816-2.558-9.888-4.67-14.37-7.753-4.481-3.082-8.457-7.326-9.817-12.591-.815-3.161-.67-6.604-2.056-9.55-1.55-3.301-4.843-5.538-8.365-6.52-3.522-.981-7.238-.85-10.866-.44-3.628.41-17.61 1.457-19.112 5.547-.805 2.202 2.536 6.926 3.329 9.092a63.49 63.49 0 012.94 10.94" fill="#eeb7b8" fill-rule="evenodd" data-name="Path 334"/></g><g data-name="Group 159"><g data-name="Group 158"><g data-name="Group 157" transform="translate(212.735 84.488)" clip-path="url(&quot;#e&quot;)"><g data-name="Group 156"><path d="M26.326 25.887c.48 2.725.735 5.724-.656 8.101-1.854 3.187-5.895 4.204-9.51 4.927L3.613 41.424c-.854.172-1.761.365-2.4.951-.752.674-1.008 1.739-1.118 2.743-.506 4.543 1.1 9.02 2.567 13.348 2.963 8.766 5.45 17.716 9.197 26.174 3.746 8.457 8.889 16.532 16.228 22.185 7.339 5.652 17.051 8.664 26.037 6.454 7.828-1.924 14.246-7.45 19.78-13.31 4.566-4.842 8.837-10.125 11.051-16.408 1.528-4.314 2.025-8.91 2.505-13.463l2.228-20.939c.348-3.275.577-6.96-1.55-9.474-.933-1.105-2.201-1.84-3.496-2.523-4.816-2.558-9.888-4.67-14.37-7.753-4.481-3.081-8.457-7.326-9.817-12.591-.815-3.161-.67-6.604-2.056-9.55-1.55-3.301-4.843-5.538-8.365-6.52-3.522-.981-7.238-.85-10.866-.44-3.628.41-17.61 1.457-19.112 5.547-.805 2.202 2.536 6.926 3.329 9.092a63.49 63.49 0 012.94 10.94" fill-rule="evenodd" data-name="Path 335"/></g></g></g></g><g data-name="Group 160"><path d="M269.258 158.249l7.357-15.576c3.447-7.3 6.97-14.97 6.604-23.03-.07-1.603-.088-3.606 1.32-4.333a3.78 3.78 0 011.933-.246 78.187 78.187 0 0122.678 4.587c1.413.511 2.862 1.101 3.852 2.228.99 1.127 1.392 2.642 1.73 4.095a119.52 119.52 0 012.523 14.911c1.321 12.424.665 24.958 0 37.422L315.3 216.36a3.643 3.643 0 01-.32 1.567c-.485.88-1.577 1.176-2.559 1.343-3.782.647-7.647.515-11.477.37-26.944-1.022-54.029-2.589-80.797.678.12-3.96.057-7.922-.19-11.887-1.06-17.122-5.498-33.825-9.857-50.414-2.54-9.686-5-20.252-.91-29.379a12.587 12.587 0 012.548-3.883c1.74-1.704 4.112-2.602 6.463-3.245a41.125 41.125 0 0112.455-1.408l27.759 60.434c1.268 2.765 2.31 5.675 3.574 8.404 1.136-4.715-.228-10.24 1.136-15.351 1.47-5.306 3.787-10.382 6.133-15.339" fill="#fff" fill-rule="evenodd" data-name="Path 336"/></g><g data-name="Group 161"><path d="M266.357 199.831c4.966.313 9.791-2.232 13.208-5.829 3.416-3.596 5.67-8.158 7.576-12.767a125.917 125.917 0 006.512-20.3c1.32-5.9 2.258-12.006 1.347-17.985-1.26-8.255-5.93-15.757-6.727-24.069-.137-1.453-.049-3.152 1.118-4.028.722-.542 1.673-.617 2.571-.67 8.304-.493 17.426-.4 23.858 4.87 1.96 1.602 3.548 3.605 5.464 5.256 4.56 3.963 11.006 5.98 13.934 11.24 1.021 1.832 1.51 3.905 2.223 5.878 1.682 4.666 4.592 8.77 7.484 12.807-2.804 11.834-6.027 23.677-8.831 35.511-1.642 6.943-3.298 13.912-5.878 20.56-1.69 4.359-3.817 8.805-3.297 13.472.207 1.836.819 3.593 1.351 5.363a61.637 61.637 0 012.594 19.164l-125.624.308c6.018-8.629 7.784-19.213 7.172-29.713-.295-5.032-1.431-10.095-3.962-14.45-3.99-6.823-11.007-11.27-17.923-15.078-4.843-2.642-10.043 12.221-15.277 10.518.845-5.979 1.232-29.057.88-35.076-.114-1.972-.29-3.997.317-5.882.414-1.29 1.176-2.443 1.69-3.698 2.065-5.023.098-11.447 3.435-15.721 2.307-2.972 6.353-3.818 9.641-5.649 3.377-1.884 5.988-4.843 8.929-7.37a39.705 39.705 0 0120.322-9.074 25.595 25.595 0 013.879 11.447c.224 2.558.061 5.151.418 7.696.489 3.447 1.915 6.683 3.328 9.87 5.887 13.292 11.795 26.623 19.253 39.104 2.109 3.522 4.403 7.044 7.458 9.787 3.055 2.743 7.454 4.702 11.557 4.508" fill="#38d29f" fill-rule="evenodd" data-name="Path 337"/></g><g data-name="Group 165"><g data-name="Group 164"><g data-name="Group 163" transform="translate(175.25 113.992)" clip-path="url(&quot;#f&quot;)"><g data-name="Group 162"><path d="M91.107 85.84c4.966.312 9.792-2.233 13.208-5.83 3.416-3.596 5.67-8.158 7.577-12.767a125.917 125.917 0 006.511-20.3c1.321-5.9 2.259-12.006 1.347-17.985-1.259-8.255-5.93-15.757-6.727-24.069-.136-1.453-.048-3.152 1.119-4.028.722-.542 1.673-.617 2.57-.67 8.304-.493 17.426-.4 23.858 4.87 1.96 1.602 3.549 3.605 5.464 5.256 4.561 3.963 11.006 5.98 13.934 11.24 1.022 1.832 1.51 3.905 2.223 5.878 1.682 4.666 4.592 8.77 7.485 12.807-2.805 11.834-6.027 23.677-8.832 35.511-1.642 6.943-3.297 13.912-5.877 20.56-1.69 4.359-3.817 8.805-3.298 13.472.207 1.836.82 3.593 1.352 5.363a61.637 61.637 0 012.593 19.164l-125.624.308c6.019-8.629 7.784-19.213 7.172-29.713-.295-5.032-1.43-10.095-3.962-14.45-3.989-6.823-11.007-11.27-17.923-15.078C10.434 72.737 5.235 87.601 0 85.897.845 79.918 1.233 56.84.88 50.82c-.114-1.972-.29-3.997.317-5.882.414-1.29 1.176-2.443 1.691-3.698 2.065-5.023.097-11.446 3.434-15.721 2.307-2.972 6.353-3.817 9.642-5.649 3.377-1.884 5.987-4.843 8.928-7.37a39.705 39.705 0 0120.323-9.074 25.595 25.595 0 013.878 11.447c.225 2.558.062 5.151.419 7.696.488 3.447 1.915 6.683 3.328 9.87 5.886 13.292 11.794 26.623 19.252 39.104 2.11 3.522 4.403 7.044 7.458 9.787 3.056 2.743 7.454 4.702 11.557 4.509" fill-rule="evenodd" data-name="Path 338"/></g></g></g></g><g data-name="Group 166"><path d="M259.713 33.898c20.843 0 37.74 16.896 37.74 37.739 0 20.843-16.897 37.739-37.74 37.739-20.842 0-37.739-16.896-37.739-37.74 0-20.842 16.897-37.738 37.74-37.738" fill="#eeb7b8" fill-rule="evenodd" data-name="Path 339"/></g><g data-name="Group 167"><path d="M239.91 121.928c1.035-9.765-3.024-19.319-7.62-27.996-2.202-4.148-4.562-8.282-5.667-12.838-1.105-4.557-.788-9.717 2.039-13.464 2.404-3.187 6.216-4.908 9.743-6.78 9.954-5.283 19.054-13.049 23.43-23.435-2.474 1.348-1.831 5.367.353 7.141 2.183 1.775 5.16 2.118 7.845 2.963 9.791 3.082 15.664 12.847 20.375 21.97.77 1.487 1.554 3.06 1.546 4.737-.01 1.677-.775 3.165-1.577 4.591-2.324 4.139-5.168 8.114-6.225 12.741-1.21 5.284.066 10.84 1.726 16.022 1.761 5.512 4.099 11.068 8.325 15.021 4.227 3.954 10.782 5.917 15.982 3.364-5.191-8.924-10.567-18.896-8.541-29.013.977-4.843 3.605-9.246 4.724-14.062 2.13-9.188-1.418-18.64-4.9-27.41L291.06 29.305c-1.59-4.002-3.399-8.273-7.044-10.54-2.466-1.528-5.45-1.924-8.339-2.201-9.298-.828-18.931-.555-27.587 2.905-15.77 6.3-25.658 21.833-33.503 36.899-2.351 4.512-4.671 9.307-4.575 14.396.053 2.791.833 5.508 1.467 8.229 2.58 11.076 2.72 22.554 2.852 33.926.102 8.726-.352 16.95-4.169 24.897 5.23 1.039 12.816 3.843 17.994 1.791 6.749-2.668 10.905-10.887 11.754-17.68" fill="#454a69" fill-rule="evenodd" data-name="Path 340"/></g><g data-name="Group 175"><g data-name="Group 174"><g data-name="Group 173" transform="translate(209.989 36.72)" clip-path="url(&quot;#g&quot;)"><g data-name="Group 168"><path d="M4.32 76.015a133.79 133.79 0 000-3.76c-.131-11.372-.272-22.85-2.852-33.926A57.25 57.25 0 01.12 31.778c-.091.758-.13 1.521-.12 2.285.054 2.791.833 5.508 1.467 8.228C4.035 53.302 4.193 64.71 4.32 76.015" fill-rule="evenodd" data-name="Path 341"/></g><g data-name="Group 169"><path d="M96.379 46.17c.578-2.572.77-5.216.572-7.845a24.434 24.434 0 01-.572 3.883c-1.118 4.843-3.747 9.205-4.724 14.062a23.328 23.328 0 00-.352 6.507c.07-.855.187-1.704.352-2.545.977-4.856 3.606-9.237 4.724-14.062" fill-rule="evenodd" data-name="Path 342"/></g><g data-name="Group 170"><path d="M81.621 35.485a6.35 6.35 0 00.344-1.942c0-1.677-.775-3.249-1.545-4.737-4.711-9.122-10.567-18.878-20.376-21.969-2.685-.845-5.657-1.188-7.845-2.963A5.581 5.581 0 0150.27 0C45.498 8.761 37.3 15.462 28.416 20.168c-3.522 1.871-7.339 3.593-9.743 6.78-2.258 2.994-2.914 6.89-2.523 10.659a13.473 13.473 0 012.523-6.696c2.404-3.188 6.217-4.91 9.743-6.78 8.885-4.707 17.082-11.407 21.855-20.169a5.581 5.581 0 001.928 3.875c2.201 1.76 5.16 2.117 7.845 2.963 9.792 3.08 15.666 12.846 20.376 21.969.477.869.88 1.778 1.201 2.716" fill-rule="evenodd" data-name="Path 343"/></g><g data-name="Group 171"><path d="M84.215 81.92c-4.227-3.963-6.556-9.51-8.326-15.023a43.493 43.493 0 01-2.113-9.558c-.41 4.522.713 9.149 2.113 13.52 1.761 5.513 4.099 11.069 8.326 15.022 4.226 3.954 10.781 5.917 15.98 3.364a225.628 225.628 0 01-1.861-3.254c-4.83 1.36-10.377-.576-14.12-4.072" fill-rule="evenodd" data-name="Path 344"/></g><g data-name="Group 172"><path d="M29.922 81.245c-.85 6.794-5.006 15.013-11.773 17.699-4.697 1.862-11.385-.277-16.487-1.462a38.084 38.084 0 01-1.506 3.632c5.23 1.04 12.816 3.844 17.993 1.792 6.767-2.685 10.923-10.905 11.773-17.698.175-1.7.207-3.41.097-5.116-.027.383-.066.77-.097 1.153" fill-rule="evenodd" data-name="Path 345"/></g></g></g></g><g data-name="Group 176"><path d="M293.257 227.123c-6.802-1.079-13.706-3.16-20.45-1.76-3.91.81-7.485 2.755-10.734 5.106 1.788 1.43 3.874 2.708 5.01 4.698a18.5 18.5 0 011.576 4.345c.714 2.642 1.431 5.336 1.541 8.083.11 2.747-.44 5.61-2.078 7.824 8.576.845 16.889-1.268 25.254-3.333a6.913 6.913 0 002.672-1.079c1.32-1.039 1.708-2.888 1.717-4.574 0-3.011-.845-5.948-1.704-8.836-1.021-3.465-1.779-7.031-2.804-10.474" fill="#fff" fill-rule="evenodd" data-name="Path 346"/></g><g data-name="Group 177"><path d="M339.185 152.865c3.376.44 5.996 3.165 7.924 5.965 5.411 7.793 7.744 17.24 10.342 26.367a350.964 350.964 0 0011.39 33.513 50.39 50.39 0 003.416 7.352c1.087 1.818 2.408 3.566 2.888 5.631 1.162 4.993-2.954 9.686-7.247 12.468a28.682 28.682 0 01-7.418 3.575c-2.562.766-5.235 1.057-7.89 1.347l-24.438 2.642c-11.249 1.224-22.599 2.448-33.852 1.268-.709-2.466.682-4.21.581-6.776-.07-1.836-.88-3.544-1.602-5.235a33.465 33.465 0 01-2.611-9.47c-.128-1.201-.172-2.434-.63-3.552-.458-1.119-1.44-2.122-2.641-2.202 6.604-.656 11.618-1.902 18.222-2.562 2.452-.247 5.001-.524 7.093-1.827 2.593-1.616 4.046-4.53 5.2-7.357 2.856-7 4.697-14.713 3.195-22.127-1.232-6.08-4.67-11.742-4.653-17.945 0-3.694 1.26-7.273 2.747-10.654 1.576-3.575 3.632-7.23 7.093-9.043 3.46-1.814 8.985-1.907 12.89-1.378" fill="#38d29f" fill-rule="evenodd" data-name="Path 347"/></g><g data-name="Group 181"><g data-name="Group 180"><g data-name="Group 179" transform="translate(287.397 152.584)" clip-path="url(&quot;#h&quot;)"><g data-name="Group 178"><path d="M51.788.28c3.376.441 5.996 3.166 7.924 5.966 5.411 7.793 7.745 17.24 10.342 26.368a350.964 350.964 0 0011.39 33.512 50.39 50.39 0 003.416 7.352c1.087 1.819 2.408 3.566 2.888 5.631 1.162 4.993-2.954 9.686-7.247 12.468a28.682 28.682 0 01-7.418 3.575c-2.562.766-5.235 1.057-7.89 1.348l-24.437 2.64c-11.249 1.224-22.599 2.448-33.852 1.268-.709-2.465.683-4.209.581-6.776-.07-1.835-.88-3.544-1.602-5.234a33.465 33.465 0 01-2.61-9.47c-.129-1.202-.173-2.435-.63-3.553-.458-1.118-1.44-2.122-2.642-2.201 6.604-.656 11.618-1.902 18.222-2.563 2.453-.246 5.002-.524 7.093-1.827 2.593-1.616 4.046-4.53 5.2-7.357 2.857-7 4.697-14.713 3.196-22.127-1.233-6.08-4.672-11.742-4.654-17.945 0-3.694 1.26-7.273 2.747-10.654 1.576-3.575 3.632-7.23 7.093-9.043C42.357-.155 47.883-.247 51.787.28" fill-rule="evenodd" data-name="Path 348"/></g></g></g></g><g data-name="Group 182"><path d="M186.146 147.146c1.598-3.795 3.223-7.714 3.267-11.83.048-4.451-1.761-8.678-3.144-12.904a74.632 74.632 0 01-3.394-15.933 2.2 2.2 0 01.22-1.528c.365-.515 1.07-.62 1.69-.757 3.047-.696 5.35-3.157 7.252-5.635a61.781 61.781 0 007.422-12.398c1.458-3.245 3.43-7.203 6.987-7.234a201.844 201.844 0 01-5.318 19.922c3.72-.95 7.255-2.333 10.976-3.284a6.583 6.583 0 012.254-.3c2.228.234 3.592 3.25 2.298 5.077 1.818 2.13 4.843 2.703 7.22 4.165 2.378 1.461 4.086 5.08 1.973 6.916-.414.357-.938.608-1.238 1.065-1.021 1.577 1.48 3.386 1.273 5.253-.168 1.527-2.127 2.24-3.61 1.836-1.484-.405-2.642-1.515-3.963-2.33-1.32-.814-3.046-1.32-4.327-.475-.344 4.143-.714 8.365-2.505 12.138-.656 1.378-1.497 2.668-2.026 4.099a20.187 20.187 0 00-.933 4.812l-1.598 14.612c-7.625 1.528-14.463-.757-20.776-5.287" fill="#eeb7b8" fill-rule="evenodd" data-name="Path 349"/></g><g data-name="Group 183"><path d="M184.284 160.243l-1.405-9.505a15.476 15.476 0 01-.224-2.342c0-2.201.968-4.301 1.906-6.305 7.77 3.628 16.17 4.918 24.743 4.923 1.131 0 2.421-.106 3.125-.991 1.458 1.677 1.502 4.376.881 6.507-.62 2.13-1.814 4.05-2.606 6.128-.401 1.053-.727 2.202-1.493 3.012-1.189 1.28-3.117 1.501-4.87 1.492a31.133 31.133 0 01-5.494-.524c-4.693-.871-9.87-3.236-14.563-2.395" fill="#fff" fill-rule="evenodd" data-name="Path 350"/></g><g data-name="Group 184"><path d="M213.266 159.856a194.364 194.364 0 01-17.976-2.906c-2.919-.612-5.864-1.294-8.84-1.175-1.937.079-4.02.466-5.724-.493 1.66 5.648 1.761 11.6-.224 17.143-1.176 3.302-2.967 6.38-3.83 9.778-1.797 7.11.669 14.864-1.576 21.846a5.524 5.524 0 01-1.356 2.43c-.687.63-1.625.956-2.259 1.638-.933 1.004-.99 2.514-.995 3.883l-.04 12.13c-.026 7.722.075 15.91 4.152 22.453 4.65 7.484 14.436 11.363 22.955 9.087a17.063 17.063 0 006.234-3.051c2.959-2.351 4.843-5.75 6.688-9.061 2.201-3.962 4.402-8.013 5.111-12.473.502-3.156.22-6.379-.14-9.553-1.99-17.61-6.31-35.071-5.38-52.748a15.987 15.987 0 013.2-8.928" fill="#38d29f" fill-rule="evenodd" data-name="Path 351"/></g><g data-name="Group 185"><path d="M238.475 232.939c-3.06.176-6.141.352-9.188 0-2.201-.264-4.35-.806-6.533-1.176a41.873 41.873 0 00-33.72 9.37c-1.69 1.443-3.399 3.658-2.465 5.679 1.003 2.174 4.072 2.113 6.436 1.708a19.372 19.372 0 00-6.604 5.164c-.66.806-1.285 1.761-1.158 2.804.269 2.18 3.228 2.576 5.416 2.387-.714.766-.234 2.122.673 2.641.907.52 2.034.414 3.06.225a22.674 22.674 0 006.498-2.25c-.414 1.079.304 2.342 1.321 2.88 1.017.536 2.254.497 3.394.312 5.38-.88 9.871-4.623 15.119-6.093 8.391-2.347 17.17 1.395 25.892 1.66 2.73.083 5.53-.194 8.017-1.321 3.05-1.387 5.512-3.99 8.734-4.914 3.58-1.021 7.687.154 10.963-1.611 2.382-1.281.233-11.156-.374-13.058-1.114-3.478-2.232-5.785-5.944-6.137-9.39-.92-20.076 1.184-29.537 1.73" fill="#eeb7b8" fill-rule="evenodd" data-name="Path 352"/></g><g data-name="Group 186"><path d="M261.901 230.245s14.216 12.032 6.014 25.16l15.85-5.472v-11.486c0-.546-6.019-8.748-6.019-8.748l-7.11-1.097-8.735 1.643z" fill="#fff" fill-rule="evenodd" data-name="Path 353"/></g><g data-name="Group 187"><path d="M113.054 229.5h5.332c6.078 0 11.006 4.928 11.006 11.007v16.338h-27.344v-16.338c0-6.079 4.928-11.006 11.006-11.006z" fill="#3e3c55" fill-rule="evenodd" data-name="Path 354"/></g><g data-name="Group 191"><g data-name="Group 190"><g data-name="Group 189" transform="translate(102.048 229.5)" clip-path="url(&quot;#i&quot;)"><g data-name="Group 188"><path d="M11.006 0h5.332c6.079 0 11.007 4.928 11.007 11.006v16.339H0V11.006C0 4.928 4.928 0 11.006 0z" fill-rule="evenodd" data-name="Path 355"/></g></g></g></g><g data-name="Group 192"><path d="M114.626 231.138a2.188 2.188 0 110 4.376 2.188 2.188 0 010-4.376" fill="#3e3c55" fill-rule="evenodd" data-name="Path 356"/></g><g data-name="Group 193"><path d="M114.626 228.404a2.188 2.188 0 110 4.376 2.188 2.188 0 010-4.376" fill="#3e3c55" fill-rule="evenodd" data-name="Path 357"/></g><g data-name="Group 194"><path d="M114.626 225.67a2.188 2.188 0 110 4.376 2.188 2.188 0 010-4.376" fill="#3e3c55" fill-rule="evenodd" data-name="Path 358"/></g><g data-name="Group 195"><path d="M114.626 222.936a2.188 2.188 0 110 4.376 2.188 2.188 0 010-4.376" fill="#3e3c55" fill-rule="evenodd" data-name="Path 359"/></g><g data-name="Group 196"><path d="M114.626 220.202a2.188 2.188 0 110 4.376 2.188 2.188 0 010-4.376" fill="#3e3c55" fill-rule="evenodd" data-name="Path 360"/></g><g data-name="Group 197"><path d="M114.626 217.468a2.188 2.188 0 110 4.376 2.188 2.188 0 010-4.376" fill="#3e3c55" fill-rule="evenodd" data-name="Path 361"/></g><g data-name="Group 198"><path d="M114.626 214.73a2.188 2.188 0 110 4.376 2.188 2.188 0 010-4.376" fill="#3e3c55" fill-rule="evenodd" data-name="Path 362"/></g><g data-name="Group 199"><path d="M117.91 215.826a2.188 2.188 0 110 4.376 2.188 2.188 0 010-4.376" fill="#3e3c55" fill-rule="evenodd" data-name="Path 363"/></g><g data-name="Group 200"><path d="M120.098 214.73a2.188 2.188 0 110 4.376 2.188 2.188 0 010-4.376" fill="#3e3c55" fill-rule="evenodd" data-name="Path 364"/></g><g data-name="Group 201"><path d="M122.286 213.638a2.188 2.188 0 110 4.376 2.188 2.188 0 010-4.376" fill="#3e3c55" fill-rule="evenodd" data-name="Path 365"/></g><g data-name="Group 202"><path d="M114.626 211.996a2.188 2.188 0 110 4.376 2.188 2.188 0 010-4.376" fill="#3e3c55" fill-rule="evenodd" data-name="Path 366"/></g><g data-name="Group 203"><path d="M114.626 209.262a2.188 2.188 0 110 4.376 2.188 2.188 0 010-4.376" fill="#3e3c55" fill-rule="evenodd" data-name="Path 367"/></g><g data-name="Group 204"><path d="M114.626 206.528a2.188 2.188 0 110 4.376 2.188 2.188 0 010-4.376" fill="#3e3c55" fill-rule="evenodd" data-name="Path 368"/></g><g data-name="Group 205"><path d="M114.626 203.794a2.188 2.188 0 110 4.376 2.188 2.188 0 010-4.376" fill="#3e3c55" fill-rule="evenodd" data-name="Path 369"/></g><g data-name="Group 206"><path d="M123.713 198.925c-.546.079-1.092.136-1.638.171a12.56 12.56 0 001.409-1.444 9.252 9.252 0 00-1.32-2.567 4.5 4.5 0 01-1.762.555 21.78 21.78 0 01-1.633.176c.717-.585 1.387-1.466 2.091-2.201a9.29 9.29 0 102.91 5.274l-.057.036z" fill="#38d29f" fill-rule="evenodd" data-name="Path 370"/></g><g data-name="Group 207"><path d="M131.008 209.795a4.245 4.245 0 01-1.84.611c-.542.08-1.088.141-1.634.177.58-.52 1.122-1.083 1.62-1.682a5.477 5.477 0 101.854.88z" fill="#38d29f" fill-rule="evenodd" data-name="Path 371"/></g><g data-name="Group 208"><path d="M111.346 215.826a2.188 2.188 0 110 4.376 2.188 2.188 0 010-4.376" fill="#3e3c55" fill-rule="evenodd" data-name="Path 372"/></g><g data-name="Group 209"><path d="M109.158 214.73a2.188 2.188 0 110 4.376 2.188 2.188 0 010-4.376" fill="#3e3c55" fill-rule="evenodd" data-name="Path 373"/></g><g data-name="Group 210"><path d="M106.97 213.638a2.188 2.188 0 110 4.376 2.188 2.188 0 010-4.376" fill="#3e3c55" fill-rule="evenodd" data-name="Path 374"/></g><g data-name="Group 211"><path d="M98.248 209.795a4.245 4.245 0 001.84.611c.542.08 1.088.141 1.634.177a15.59 15.59 0 01-1.62-1.682 5.477 5.477 0 11-1.854.88z" fill="#38d29f" fill-rule="evenodd" data-name="Path 375"/></g><g data-name="Group 212"><path d="M113.054 231.12h5.332c6.078 0 11.006 4.929 11.006 11.007v14.471a1.867 1.867 0 01-1.867 1.867h-23.624a1.867 1.867 0 01-1.867-1.867v-14.47c0-6.08 4.928-11.007 11.007-11.007z" fill="#3e3c55" fill-rule="evenodd" data-name="Path 376"/></g><g data-name="Group 218"><g data-name="Group 217"><g data-name="Group 216" transform="translate(105.409 191.287)" clip-path="url(&quot;#j&quot;)"><g data-name="Group 213"><path d="M18.454 8.236a8.42 8.42 0 01-.705.67c.251 0 .498-.04.749-.067a9.037 9.037 0 00-.044-.603" fill-rule="evenodd" data-name="Path 377"/></g><g data-name="Group 214"><path d="M14.465 5.62a20.47 20.47 0 001.638-.17c.49-.063.968-.193 1.422-.388a9.634 9.634 0 00-.766-1.264c-.274.167-.57.293-.88.374-.433.52-.905 1.005-1.414 1.449" fill-rule="evenodd" data-name="Path 378"/></g><g data-name="Group 215"><path d="M1.015 10.318A9.28 9.28 0 0115.324 2.5l.14-.15a9.29 9.29 0 00-13.114.765 9.29 9.29 0 00.867 13.205 9.245 9.245 0 01-2.202-6" fill-rule="evenodd" data-name="Path 379"/></g></g></g></g><g data-name="Group 223"><g data-name="Group 222"><g data-name="Group 221" transform="translate(122.286 208.715)" clip-path="url(&quot;#k&quot;)"><g data-name="Group 219"><path d="M5.248 2.96a20.33 20.33 0 001.633-.172 4.249 4.249 0 001.84-.616 5.471 5.471 0 012.202 3.874c.021-.191.032-.384.03-.577a5.45 5.45 0 00-2.2-4.402 4.245 4.245 0 01-1.84.612l-.441.057c-.376.439-.785.848-1.224 1.224" fill-rule="evenodd" data-name="Path 380"/></g><g data-name="Group 220"><path d="M5.468 1.093c.183.002.365.016.546.04.286-.304.568-.63.854-.947A5.46 5.46 0 000 5.47c0 .185 0 .366.026.546a5.468 5.468 0 015.442-4.922" fill-rule="evenodd" data-name="Path 381"/></g></g></g></g><g data-name="Group 228"><g data-name="Group 227"><g data-name="Group 226" transform="translate(96.016 208.715)" clip-path="url(&quot;#l&quot;)"><g data-name="Group 224"><path d="M5.706 2.96a20.33 20.33 0 01-1.634-.172 4.249 4.249 0 01-1.84-.616A5.471 5.471 0 00.031 6.046 4.948 4.948 0 010 5.47a5.45 5.45 0 012.201-4.402 4.245 4.245 0 001.84.612l.44.057c.374.441.784.85 1.225 1.224" fill-rule="evenodd" data-name="Path 382"/></g><g data-name="Group 225"><path d="M5.486 1.093a4.606 4.606 0 00-.55.04c-.282-.304-.564-.63-.85-.947a5.46 5.46 0 016.868 5.283c0 .185 0 .366-.027.546a5.468 5.468 0 00-5.441-4.922" fill-rule="evenodd" data-name="Path 383"/></g></g></g></g><g data-name="Group 229"><path d="M86.665 263.757H43.652a1.827 1.827 0 01-1.827-1.827v-20.358a1.827 1.827 0 012.61-1.65c12.358 5.864 25.672 7.876 41.385.092a1.831 1.831 0 012.641 1.633V261.9a1.827 1.827 0 01-1.796 1.858z" fill="#38d29f" fill-rule="evenodd" data-name="Path 384"/></g><g data-name="Group 233"><g data-name="Group 232"><g data-name="Group 231" transform="translate(41.825 239.745)" clip-path="url(&quot;#m&quot;)"><g data-name="Group 230"><path d="M44.84 24.012H1.827A1.827 1.827 0 010 22.185V1.828A1.827 1.827 0 012.61.177C14.97 6.04 28.283 8.053 43.996.269a1.831 1.831 0 012.642 1.633v20.252a1.827 1.827 0 01-1.796 1.858z" fill-rule="evenodd" data-name="Path 385"/></g></g></g></g><g data-name="Group 234"><path d="M64.859 241.616c1.405 0 2.545 1.492 2.545 3.333 0 1.84-1.14 3.333-2.545 3.333s-2.545-1.492-2.545-3.333c0-1.84 1.14-3.333 2.545-3.333" fill="#3e3c55" fill-rule="evenodd" data-name="Path 386"/></g><g data-name="Group 235"><path d="M64.859 237.544c1.405 0 2.545 1.492 2.545 3.333 0 1.84-1.14 3.333-2.545 3.333s-2.545-1.492-2.545-3.333c0-1.84 1.14-3.333 2.545-3.333" fill="#3e3c55" fill-rule="evenodd" data-name="Path 387"/></g><g data-name="Group 236"><path d="M64.859 233.467c1.405 0 2.545 1.492 2.545 3.333 0 1.84-1.14 3.333-2.545 3.333s-2.545-1.492-2.545-3.333c0-1.84 1.14-3.333 2.545-3.333" fill="#3e3c55" fill-rule="evenodd" data-name="Path 388"/></g><g data-name="Group 237"><path d="M64.859 229.395c1.405 0 2.545 1.492 2.545 3.333 0 1.84-1.14 3.332-2.545 3.332s-2.545-1.492-2.545-3.332c0-1.841 1.14-3.333 2.545-3.333" fill="#3e3c55" fill-rule="evenodd" data-name="Path 389"/></g><g data-name="Group 238"><path d="M64.859 225.318c1.405 0 2.545 1.492 2.545 3.333 0 1.84-1.14 3.333-2.545 3.333s-2.545-1.492-2.545-3.333c0-1.84 1.14-3.333 2.545-3.333" fill="#3e3c55" fill-rule="evenodd" data-name="Path 390"/></g><g data-name="Group 239"><path d="M64.859 221.241c1.405 0 2.545 1.492 2.545 3.333 0 1.84-1.14 3.333-2.545 3.333s-2.545-1.492-2.545-3.333c0-1.84 1.14-3.333 2.545-3.333" fill="#3e3c55" fill-rule="evenodd" data-name="Path 391"/></g><g data-name="Group 240"><path d="M64.859 217.169c1.405 0 2.545 1.492 2.545 3.333 0 1.84-1.14 3.332-2.545 3.332s-2.545-1.492-2.545-3.332c0-1.841 1.14-3.333 2.545-3.333" fill="#3e3c55" fill-rule="evenodd" data-name="Path 392"/></g><g data-name="Group 241"><path d="M74.404 192.616c.345-.445.662-.91.946-1.396l-6.692-1.1 7.238.052a12.199 12.199 0 00.234-9.686l-9.708 5.037 8.955-6.604c-3.373-5.832-10.835-7.827-16.668-4.454-5.833 3.373-7.827 10.835-4.455 16.668.29.5.615.98.972 1.434a11.939 11.939 0 00-1.391 2.223l8.682 4.562-9.246-3.126a12.214 12.214 0 001.968 11.446c-4.165 5.296-3.249 12.966 2.047 17.131 5.296 4.166 12.966 3.25 17.131-2.046a12.199 12.199 0 000-15.085 12.2 12.2 0 000-15.083z" fill="#38d29f" fill-rule="evenodd" data-name="Path 393"/></g><g data-name="Group 245"><g data-name="Group 244"><g data-name="Group 243" transform="translate(52.606 199.978)" clip-path="url(&quot;#n&quot;)"><g data-name="Group 242"><path d="M0 .18a12.146 12.146 0 002.611 7.54c-4.165 5.296-3.249 12.966 2.047 17.131 5.296 4.165 12.966 3.25 17.13-2.047a12.199 12.199 0 000-15.084C23.423 5.648 0-1.189 0 .18" fill-rule="evenodd" data-name="Path 394"/></g></g></g></g><g data-name="Group 246"><path d="M86.665 264.836H43.652a1.827 1.827 0 01-1.827-1.827v-21.437a1.827 1.827 0 012.61-1.65c12.358 5.864 22.159 12.7 41.385.092 1.14-.749 2.641.273 2.641 1.633V263c.005 1-.796 1.819-1.796 1.836" fill="#38d29f" fill-rule="evenodd" data-name="Path 395"/></g><g data-name="Group 247"><path d="M405.844 258.773l-63.459 8.396-3.174.418-31.025-16.571v-3.879l96.954-10.575.704 22.211z" fill="#9c9ca0" fill-rule="evenodd" data-name="Path 396"/></g><g data-name="Group 248"><path d="M326.166 252.777l68.746-8.105-.704 12.693-53.549 3.927-14.493-8.515z" fill="#929397" fill-rule="evenodd" data-name="Path 397"/></g><g data-name="Group 252"><g data-name="Group 251"><g data-name="Group 250" transform="translate(308.181 247.137)" clip-path="url(&quot;#o&quot;)"><g data-name="Group 249"><path d="M34.204 15.863v4.164l-3.175.44L0 3.88V0l29.616 15.85s3.883.365 4.588.013" fill-rule="evenodd" data-name="Path 398"/></g></g></g></g><g data-name="Group 253"><path d="M354.567 196.895l-14.247 66.06a4.218 4.218 0 004.676 5.077l90.134-11.931a4.217 4.217 0 003.452-2.853l19.446-58.642a4.226 4.226 0 00-4.209-5.548l-95.325 4.526a4.226 4.226 0 00-3.927 3.31" fill="#3e3c55" fill-rule="evenodd" data-name="Path 399"/></g><g data-name="Group 254"><path d="M399.2 220.751c.22-2.104 1.495-3.694 2.847-3.552 1.352.143 2.268 1.963 2.047 4.067-.22 2.104-1.496 3.694-2.848 3.552-1.351-.142-2.268-1.963-2.047-4.067" fill="#fff" fill-rule="evenodd" data-name="Path 400"/></g></g></g></g><defs><clipPath id="b"><path d="M0 0h506.294v276.26H0V0z" data-name="Rectangle 112"/></clipPath><clipPath id="c"><path d="M0 0h493.64v6.018H0V0z" data-name="Rectangle 113"/></clipPath><clipPath id="d"><path d="M0 0h123.486v85.965H0V0z" data-name="Rectangle 114"/></clipPath><clipPath id="e"><path d="M0 0h89.914v114.007H0V0z" data-name="Rectangle 115"/></clipPath><clipPath id="f"><path d="M0 0h169.676v134.62H0V0z" data-name="Rectangle 116"/></clipPath><clipPath id="g"><path d="M0 0h100.196v103.638H0V0z" data-name="Rectangle 117"/></clipPath><clipPath id="h"><path d="M0 0h87.947v100.888H0V0z" data-name="Rectangle 118"/></clipPath><clipPath id="i"><path d="M0 0h27.345v27.345H0V0z" data-name="Rectangle 119"/></clipPath><clipPath id="j"><path d="M0 0h18.498v16.32H0V0z" data-name="Rectangle 120"/></clipPath><clipPath id="k"><path d="M0 0h10.954v6.046H0V0z" data-name="Rectangle 121"/></clipPath><clipPath id="l"><path d="M0 0h10.954v6.046H0V0z" data-name="Rectangle 122"/></clipPath><clipPath id="m"><path d="M0 0h46.637v24.012H0V0z" data-name="Rectangle 123"/></clipPath><clipPath id="n"><path d="M0 0h24.4v27.463H0V0z" data-name="Rectangle 124"/></clipPath><clipPath id="o"><path d="M0 0h34.204v20.468H0V0z" data-name="Rectangle 125"/></clipPath><clipPath id="a"><path d="M0-627.495h506.295v276.26H0v-276.26z" data-name="Path 401" transform="translate(0 627.495)"/></clipPath></defs></svg>