<svg xmlns="http://www.w3.org/2000/svg" viewBox="0 0 256 256" width="50" height="50"><path d="M71.68 20.48c-28.218 0-51.2 22.982-51.2 51.2v112.64c0 28.218 22.982 51.2 51.2 51.2h112.64c28.218 0 51.2-22.982 51.2-51.2V71.68c0-28.218-22.982-51.2-51.2-51.2zm-5.12 61.44h122.88c.922 0 1.79.104 2.61.36l-50.33 50.28c-7.578 7.578-19.912 7.578-27.49 0L63.95 82.28c.82-.256 1.688-.36 2.61-.36zm-9.88 7.63L95.18 128l-38.5 38.45c-.256-.82-.36-1.688-.36-2.61V92.16c0-.922.104-1.79.36-2.61zm142.64 0c.256.82.36 1.688.36 2.61v71.68c0 .922-.104 1.79-.36 2.61L160.77 128zm-96.92 45.67l4.56 4.61c5.786 5.786 13.412 8.65 20.99 8.65 7.629 0 15.204-2.864 20.99-8.65l4.61-4.61 38.5 38.5c-.82.256-1.688.36-2.61.36H66.56c-.922 0-1.79-.104-2.61-.36z" fill="#3f3d56" font-family="none" font-weight="none" font-size="none" text-anchor="none"/></svg>