<svg xmlns="http://www.w3.org/2000/svg" width="536.042" height="361.41" viewBox="690.958 225.493 536.042 361.41"><g data-name="Group 2" fill-rule="evenodd"><path d="M1225.503 486.553c0 21.442-117.927 100.35-265.264 100.35s-263.236-84.124-263.236-105.517S812.951 509.3 960.24 509.3s265.264-44.187 265.264-22.746z" fill="#3f3d56" data-name="Path 1"/><path d="M1226.952 478.006v.87c-.338 8.885-5.264 17.77-14.343 24-9.61 6.616-22.455 10.093-35.687 12.314-2.077.338-4.153.676-6.23.966-1.062.145-2.124.29-3.138.435-29.41 3.863-59.447 4.587-89.388 5.312-31.292.772-62.585 1.545-93.878 1.931l-6.23.097c-47.518.531-94.988.097-142.314-2.608-14.68-.82-29.506-1.931-44.09-3.766a274.94 274.94 0 01-6.23-.821c-19.316-2.753-38.053-7.003-55.148-13.908a124.355 124.355 0 01-11.831-5.457c-10.721-5.699-19.751-12.894-24.243-21.731a30.484 30.484 0 01-3.09-16.757 40.01 40.01 0 011.062-6.23c1.352-5.022 3.38-9.9 6.085-14.342 6.954-11.783 17.433-22.36 26.464-33.418 19.268-23.614 31.823-53.41 14.052-77.604-5.119-6.954-12.459-13.039-16.66-20.33a32.115 32.115 0 01-4.057-12.75c-.241-2.076-.29-4.153-.241-6.23.193-4.828.82-9.657 1.835-14.39 2.897-14.825 8.306-30.81 25.015-40.082 11.493-6.374 26.029-8.354 40.758-7.968 2.076.049 4.153.145 6.23.29 5.65.386 11.251 1.062 16.708 1.932 33.514 5.36 64.469 16.564 95.713 26.656 23.808 7.679 48.436 14.874 73.983 18.303 2.076.29 4.153.531 6.23.772a204.45 204.45 0 0018.108 1.256c30.327.87 65.725-5.698 85.862-22.745 19.462-16.516 55.97-17.82 82.433-7.968l.387.145a103.48 103.48 0 015.795 2.463c19.51 9.175 32.596 24.87 34.431 41.337.242 2.028.29 4.105.145 6.133v.048c-1.255 20.234-17.82 37.233-34.576 54.231-2.077 2.125-4.153 4.202-6.23 6.326-5.457 5.602-10.72 11.252-15.308 17.047a81.306 81.306 0 00-5.747 8.258c-1.593 2.656-2.994 5.409-4.105 8.306a36.527 36.527 0 00-2.27 9.32c-.482 4.588.387 9.224 2.415 13.329l.049.096c4.49 8.886 13.956 15.164 24.966 20.766a377.477 377.477 0 006.23 3.042c11.928 5.602 24.725 10.865 34.48 17.771a55.899 55.899 0 017.34 6.181c.917.966 1.787 1.932 2.608 2.994a26.056 26.056 0 015.65 15.792v.386z" fill="#38d39f" data-name="Path 2"/><path d="M535.875 252.517v.87c-.338 8.885-5.264 17.77-14.342 24-9.61 6.616-22.456 10.093-35.688 12.315a272.74 272.74 0 01-6.23.965c-1.062.145-2.124.29-3.138.435-29.41 3.863-59.447 4.588-89.387 5.312-31.293.773-62.586 1.545-93.878 1.932l-6.23.096c-47.519.531-94.989.097-142.314-2.607-14.681-.821-29.506-1.932-44.09-3.767a274.94 274.94 0 01-6.23-.821c-19.316-2.753-38.053-7.002-55.149-13.908a124.355 124.355 0 01-11.83-5.457c-10.722-5.698-19.752-12.894-24.243-21.731a30.484 30.484 0 01-3.09-16.757 40.01 40.01 0 011.062-6.23c1.352-5.022 3.38-9.9 6.084-14.342 6.954-11.783 17.433-22.359 26.464-33.418 19.268-23.614 31.824-53.41 14.053-77.604-5.12-6.954-12.46-13.038-16.66-20.33a32.115 32.115 0 01-4.057-12.75c-.242-2.076-.29-4.152-.242-6.229a85.009 85.009 0 011.835-14.39c2.898-14.826 8.306-30.81 25.015-40.082C65.084 1.644 79.62-.336 94.348.05c2.077.049 4.153.145 6.23.29 5.65.387 11.251 1.063 16.708 1.932 33.515 5.36 64.47 16.564 95.714 26.657 23.807 7.678 48.436 14.873 73.982 18.302 2.076.29 4.153.531 6.23.773 5.988.676 12.024 1.11 18.109 1.255 30.327.87 65.724-5.698 85.862-22.745 19.461-16.516 55.97-17.82 82.433-7.968l.386.145c1.98.773 3.912 1.594 5.795 2.463 19.51 9.175 32.597 24.87 34.432 41.337.241 2.028.29 4.105.145 6.133v.048c-1.256 20.234-17.82 37.233-34.577 54.231-2.076 2.125-4.153 4.202-6.23 6.327-5.456 5.601-10.72 11.251-15.308 17.046a81.306 81.306 0 00-5.746 8.258c-1.594 2.656-2.995 5.409-4.105 8.306a36.527 36.527 0 00-2.27 9.32c-.483 4.588.386 9.224 2.415 13.329l.048.097c4.491 8.885 13.956 15.163 24.967 20.765a377.477 377.477 0 006.23 3.042c11.927 5.602 24.724 10.866 34.479 17.771a55.899 55.899 0 017.34 6.182c.918.965 1.787 1.931 2.608 2.994a26.056 26.056 0 015.65 15.79v.387z" fill="url(&quot;#a&quot;)" transform="translate(691.077 225.489)" data-name="Path 3"/><path d="M1176.922 246.594v101.798c-2.077 2.125-4.153 4.202-6.23 6.326V244.035l6.23 2.56z" fill="#3f3d56" data-name="Path 4"/><path d="M1211.498 294.113v.048H718.155c-.242-2.076-.29-4.153-.242-6.23h493.44c.242 2.077.29 4.105.145 6.182z" fill="#3f3d56" data-name="Path 5"/><path d="M805.755 260.064a1.835 1.835 0 110 .1z" fill="#e7effd" data-name="Ellipse 1"/><path d="M747.757 256.442a1.835 1.835 0 110 .1z" fill="#e7effd" data-name="Ellipse 2"/><path d="M827.245 260.064a.773.773 0 110 .1z" fill="#e7effd" data-name="Ellipse 3"/><path d="M769.006 258.277a.773.773 0 110 .1z" fill="#e7effd" data-name="Ellipse 4"/><path d="M768.233 312.557a.773.773 0 110 .1z" fill="#e7effd" data-name="Ellipse 5"/><path d="M1126.844 271.51a.773.773 0 110 .1z" fill="#e7effd" data-name="Ellipse 6"/><path d="M863.512 272.233a.773.773 0 110 .1z" fill="#e7effd" data-name="Ellipse 7"/><path d="M1088.5 270.688a.773.773 0 110 .1z" fill="#e7effd" data-name="Ellipse 8"/><path d="M1186.387 273.006a.773.773 0 110 .1z" fill="#e7effd" data-name="Ellipse 9"/><path d="M1226.952 478.006v.87c-.242 8.981-5.216 17.915-14.343 24.242-9.61 6.615-22.455 10.092-35.687 12.314-2.077.338-4.153.676-6.23.966-1.062.144-2.124.29-3.138.434-7.244.966-14.536 1.69-21.828 2.318-9.803.821-19.655 1.4-29.506 1.835-12.652.58-25.353.87-38.005 1.208-24.774.627-49.547 1.207-74.369 1.641l-8.789.145-10.72.145-6.23.097c-39.116.434-78.184.193-117.155-1.4a418.026 418.026 0 01-7.775-.339 1046.32 1046.32 0 01-17.385-.869c-11.59-.676-23.324-1.497-34.914-2.704-3.09-.338-6.133-.676-9.176-1.063a274.62 274.62 0 01-6.23-.82 290.82 290.82 0 01-6.856-1.063c-16.902-2.753-33.225-6.76-48.243-12.845-4.057-1.594-7.968-3.43-11.832-5.457v-84.993a470.592 470.592 0 006.326-7.485c2.463-3.043 4.83-6.133 7.003-9.32h46.746v-28.83h82.336v63.213h134.105v-50.223h154.725a52.023 52.023 0 00-4.056 8.016v.29h-.193a36.528 36.528 0 00-2.27 9.32c-.483 4.588.386 9.224 2.414 13.329v.193l.049.097c4.49 8.885 13.956 15.163 24.966 20.765a377.826 377.826 0 006.23 3.042c11.783 5.554 24.484 10.72 34.19 17.578l.29.193c2.56 1.787 4.974 3.767 7.147 5.988.097.049.145.145.193.194.918.965 1.787 1.931 2.608 2.994a26.118 26.118 0 015.65 15.598c-.048.096-.048.241-.048.386z" fill="#38d39f" data-name="Path 6"/><path d="M1226.952 478.006v.87c-.242 8.981-5.216 17.915-14.343 24.242-9.61 6.615-22.455 10.092-35.687 12.314-2.077.338-4.153.676-6.23.966-1.062.144-2.124.29-3.138.434-7.244.966-14.536 1.69-21.828 2.318-9.803.821-19.655 1.4-29.506 1.835-12.652.58-25.353.87-38.005 1.208-24.774.627-49.547 1.207-74.369 1.641l-8.789.145-10.72.145-6.23.097c-39.116.434-78.184.193-117.155-1.4a418.026 418.026 0 01-7.775-.339 1046.32 1046.32 0 01-17.385-.869c-11.59-.676-23.324-1.497-34.914-2.704-3.09-.338-6.133-.676-9.176-1.063a274.62 274.62 0 01-6.23-.82 290.82 290.82 0 01-6.856-1.063c-16.902-2.753-33.225-6.76-48.243-12.845-4.057-1.594-7.968-3.43-11.832-5.457v-84.993a470.592 470.592 0 006.326-7.485c2.463-3.043 4.83-6.133 7.003-9.32h46.746v-28.83h82.336v63.213h134.105v-50.223h154.725a52.023 52.023 0 00-4.056 8.016v.29h-.193a36.528 36.528 0 00-2.27 9.32c-.483 4.588.386 9.224 2.414 13.329v.193l.049.097c4.49 8.885 13.956 15.163 24.966 20.765a377.826 377.826 0 006.23 3.042c11.783 5.554 24.484 10.72 34.19 17.578l.29.193c2.56 1.787 4.974 3.767 7.147 5.988.097.049.145.145.193.194.918.965 1.787 1.931 2.608 2.994a26.118 26.118 0 015.65 15.598c-.048.096-.048.241-.048.386z" data-name="Path 7"/><path d="M733.85 407.452h13.81v9.32h-13.81v-9.32z" data-name="Rectangle 1"/><path d="M755.967 407.452h13.811v9.32h-13.811v-9.32z" data-name="Rectangle 2"/><path d="M1009.69 388.28h13.81v9.321h-13.81v-9.32z" data-name="Rectangle 3"/><path d="M1046.97 388.28h13.811v9.321h-13.81v-9.32z" data-name="Rectangle 4"/><path d="M1087.052 388.28h13.811v9.321h-13.811v-9.32z" data-name="Rectangle 5"/><path d="M1009.69 416.773h13.81v9.32h-13.81v-9.32z" data-name="Rectangle 6"/><path d="M1046.97 416.773h13.811v9.32h-13.81v-9.32z" data-name="Rectangle 7"/><path d="M1087.052 416.773h13.811v9.32h-13.811v-9.32z" fill="#38d39f" data-name="Rectangle 8"/><path d="M1009.69 445.264h13.81v9.32h-13.81v-9.32z" data-name="Rectangle 9"/><path d="M1046.97 445.264h13.811v9.32h-13.81v-9.32z" data-name="Rectangle 10"/><path d="M1087.052 445.264h13.811v9.32h-13.811v-9.32z" data-name="Rectangle 11"/><path d="M1009.69 473.756h13.81v9.32h-13.81v-9.32z" data-name="Rectangle 12"/><path d="M1046.97 473.756h13.811v9.32h-13.81v-9.32z" data-name="Rectangle 13"/><path d="M1087.052 473.756h13.811v9.32h-13.811v-9.32z" data-name="Rectangle 14"/><path d="M1009.69 502.2h13.81v9.32h-13.81v-9.32z" data-name="Rectangle 15"/><path d="M1046.97 502.2h13.811v9.32h-13.81v-9.32z" data-name="Rectangle 16"/><path d="M1087.052 502.2h13.811v9.32h-13.811v-9.32z" data-name="Rectangle 17"/><path d="M1145.533 388.33a36.52 36.52 0 00-2.27 9.32h-7.582v-9.32h9.852z" data-name="Path 8"/><path d="M1135.73 416.773h13.81v9.32h-13.81v-9.32z" fill="#38d39f" data-name="Rectangle 18"/><path d="M1135.73 445.264h13.81v9.32h-13.81v-9.32z" data-name="Rectangle 19"/><path d="M1135.73 473.756h13.81v9.32h-13.81v-9.32z" data-name="Rectangle 20"/><path d="M1135.73 502.2h13.81v9.32h-13.81v-9.32z" data-name="Rectangle 21"/><path d="M810.488 377.415h13.811v9.32h-13.811v-9.32z" data-name="Rectangle 22"/><path d="M810.488 398.325h13.811v9.32h-13.811v-9.32z" fill="#38d39f" data-name="Rectangle 23"/><path d="M810.488 419.187h13.811v9.32h-13.811v-9.32z" data-name="Rectangle 24"/><path d="M810.488 440.097h13.811v9.32h-13.811v-9.32z" data-name="Rectangle 25"/><path d="M810.488 461.007h13.811v9.32h-13.811v-9.32z" data-name="Rectangle 26"/><path d="M810.488 481.87h13.811v9.32h-13.811v-9.32z" data-name="Rectangle 27"/><path d="M810.488 502.78h13.811v9.32h-13.811v-9.32z" data-name="Rectangle 28"/><path d="M733.85 431.791h13.81v9.32h-13.81v-9.32z" data-name="Rectangle 29"/><path d="M755.967 431.791h13.811v9.32h-13.811v-9.32z" data-name="Rectangle 30"/><path d="M733.85 456.178h13.81v9.32h-13.81v-9.32z" data-name="Rectangle 31"/><path d="M755.967 456.178h13.811v9.32h-13.811v-9.32z" data-name="Rectangle 32"/><path d="M733.85 480.517h13.81v9.32h-13.81v-9.32z" data-name="Rectangle 33"/><path d="M755.967 480.517h13.811v9.32h-13.811v-9.32z" data-name="Rectangle 34"/><path d="M888.527 441.111h69.056v8.355h-69.056v-8.355z" data-name="Rectangle 35"/><path d="M888.527 467.672h69.056v8.354h-69.056v-8.354z" data-name="Rectangle 36"/><path d="M888.527 494.232h69.056v8.354h-69.056v-8.354z" data-name="Rectangle 37"/><path d="M791.654 225.829v291.68a274.426 274.426 0 01-6.23-.822V225.54c2.077.049 4.154.145 6.23.29z" fill="#3f3d56" data-name="Path 9"/><path d="M984.288 273.444v250.39l-6.23.097V272.72c2.077.241 4.154.531 6.23.724z" fill="#3f3d56" data-name="Path 10"/><path d="M1218.742 458.834H691.16a40.011 40.011 0 011.062-6.23h519.18c2.656 1.836 5.07 3.912 7.34 6.23z" fill="#3f3d56" data-name="Path 11"/><path d="M1170.692 431.791a379.023 379.023 0 006.23 3.043v80.356c-2.077.338-4.153.676-6.23.966v-84.365z" fill="#3f3d56" data-name="Path 12"/><path d="M853.95 336.464h-1.207v-1.159h-.193v1.16h-1.208v.24h1.208v1.16h.193v-1.16h1.207v-.24z" fill="#e7effd" data-name="Path 13"/><path d="M1100.863 311.787h-1.207v-1.207h-.241v1.207h-1.16v.194h1.16v1.207h.241v-1.207h1.207v-.194z" fill="#e7effd" data-name="Path 14"/><path d="M882.055 306.958h-1.158V305.8h-.242v1.16h-1.159v.24h1.16v1.16h.24v-1.16h1.16v-.24z" fill="#e7effd" data-name="Path 15"/><path d="M879.496 382.82a.773.773 0 110 .1z" fill="#e7effd" data-name="Ellipse 10"/><path d="M1056.822 313.33a.773.773 0 110 .1z" fill="#e7effd" data-name="Ellipse 11"/><path d="M1134.957 350.176a.773.773 0 110 .1z" fill="#e7effd" data-name="Ellipse 12"/><path d="M1012.587 356.84a.773.773 0 110 .1z" fill="#e7effd" data-name="Ellipse 13"/><path d="M516.908 338.564s-16.564 4.008-23.131 11.493c-2.173 2.512-5.457 4.298-8.837 5.602v-11.3c3.766-6.374 7.63-13.425 7.63-13.425.193-.338 1.545-5.215 1.545-5.215 3.09-2.463-.193-10.963-.193-10.963s1.883-5.408.869-6.47c-1.014-1.063-.193-3.816.676-5.071.87-1.256.676-2.801.676-3.815 0-1.014-1.4-2.608-3.622-3.477-2.221-.87.193-2.27 1.546-2.608 1.352-.338 1.738-3.67.193-5.409-1.546-1.738.193-2.8 1.014-4.684.82-1.883-2.753-1.593-2.753-1.593v-17.627s-1.062-5.746-2.076-15.888c-1.014-10.14-5.023-11.155-5.023-11.155a49.11 49.11 0 01-6.23-2.463c-2.124-1.014-4.297-1.786-6.567-2.414 0 0-4.684 0-8.45-1.16-3.767-1.158-5.796-1.255-5.796-1.255l-.627-.29c-4.685-2.366-8.355-6.326-10.48-11.107l-.29-.724c1.015-1.11 1.932-2.366 2.753-3.67v-.048 2.125c2.753-4.878 10.72-5.989 11.493-11.542.049-.242.049-.531.049-.773v-.628c-.097-1.545-.628-3.09-.725-4.636a6.334 6.334 0 010-1.352v.049c.338-4.298 3.622-8.065 5.071-12.266.386-1.111.676-2.318.773-3.477v-.049c.048-.338.048-.724.096-1.062v-1.014c-.096-4.491-2.028-8.79-5.408-11.783-2.753-2.415-6.375-3.912-8.307-7.002-.869-1.45-1.303-3.188-2.317-4.588-1.836-2.656-5.168-3.719-8.355-4.105-3.187-.386-6.423-.241-9.465-1.255-2.173-.725-4.105-1.98-6.278-2.608-4.829-1.304-9.996.58-12.894 4.636-1.159 1.69-1.883 3.67-3.428 4.974-3.14 2.656-8.548 1.497-11.3 4.587-1.546 1.69-1.69 4.009-1.497 6.375v.096c0 .194.048.387.048.532v.241c0 .048 0 .193.048.29.097.87.242 1.69.338 2.511 0 .145.048.241.048.386l.097.773c0 .193.048.386.048.531 0 .145.049.483.049.676 0 .193 0 .338.048.531a37.58 37.58 0 01-3.96 18.593c-2.608 5.119-6.52 9.851-7.195 15.55a18.526 18.526 0 00-.097 2.849v.338c0 .096.048.338.048.483 0 .144.049.386.049.58 0 .096.048.24.048.337.048.242.048.531.097.773l.048.145c.676 3.911 2.221 7.726 3.09 11.686.29 1.449.532 2.946.628 4.395v.048c.049.483.049.966.049 1.4v1.932a38.537 38.537 0 01-4.009 1.256c-2.414.338-9.513 6.616-8.982 8.21.531 1.593-3.187 12.555-3.284 12.893l-5.795 40.082s-3.09 2.945-2.124 4.877c.965 1.932-.194 5.216-.194 5.216s-5.215 2.27-4.056 3.67c1.159 1.4.628 4.008-.145 5.746-.773 1.739-2.076 4.878 0 5.409 2.077.531.483 7.34.483 7.34s7.292-.82 6.76 3.477c-.192 1.352 5.071 5.167 7.293 6.664v20.814c-2.946-.821-6.423-1.883-8.644-2.946-4.491-2.076-29.7-6.085-35.205 5.94-5.505 12.024 7.582 28.057 10.866 29.796 0 0 3.09 2.414 3.815 3.67.724 1.255 4.636 1.593 4.636 1.593s4.153 1.932 5.167 2.946c.773.773 7.05 2.801 14.536 4.346 0 0-6.037 13.908 3.815 12.75 9.851-1.16 14.68-5.989 21.586-5.989 2.8 0 7.92-.386 13.135-.869 1.304.241 2.608.531 3.863.917a52.24 52.24 0 008.983 1.932s7.774 4.201 11.927 3.139c.339-.097.677-.241.918-.483h.097c.772-.193 1.593-.966 2.51-2.125 5.168.532 11.108 1.304 13.33 2.125 4.297 1.642 35.01-.628 35.01-.628s19.848.387 25.498 2.125c5.65 1.739 3.67-17.53-6.809-19.703-2.8-.58-5.65-.82-8.5-.82.725-.773 1.401-1.546 1.98-2.415 3.768-.338 6.279-.58 6.279-.58s9.996-4.877 15.694-7.871a36.246 36.246 0 009.659-7.678s5.022-3.14 7.098-4.347c2.077-1.207 3.091-5.215 3.091-5.215 15.695-35.542-24.146-30.81-24.146-30.81zm-44.959-44.621v-1.739c.531.387.483 1.015 0 1.739zm.145 12.314c.435.531.82 1.063 1.11 1.449 1.111 1.449-.917 2.125-.772 4.54.048.53.097 1.303.145 2.124-.193-3.477-.386-6.326-.483-8.113z" fill="url(&quot;#b&quot;)" transform="translate(519.583 149.245)" data-name="Path 16"/><path d="M901.855 510.506s-9.658-2.27-14.15-4.298c-4.49-2.028-29.699-6.036-35.204 5.892-5.505 11.928 7.582 27.767 10.866 29.506 3.284 1.738 35.204-21.925 35.204-21.925l25.208 10.624 4.83-16.467-26.754-3.332z" fill="#65617d" data-name="Path 17"/><path d="M930.298 513.79h74.08c9.802 0 17.77 7.968 17.77 17.77v2.56c0 9.804-7.968 17.771-17.77 17.771h-74.08c-9.803 0-17.77-7.967-17.77-17.77v-2.56c-.049-9.803 7.919-17.771 17.77-17.771z" fill="#65617d" data-name="Path 18"/><path d="M1022.148 532.865a18.88 18.88 0 01-3.187 10.527 20.1 20.1 0 01-2.414 2.946c-3.574 3.574-8.451 5.602-13.474 5.602h-71.519c-10.528 0-19.075-8.548-19.075-19.075 0-10.528 8.547-19.075 19.075-19.075h71.52c10.527 0 19.074 8.547 19.074 19.075z" data-name="Path 19"/><path d="M962.46 533.976s-11.01 2.8-19.944 2.704c-8.982-.145-50.947 17.288-50.947 17.288s-6.037 13.763 3.815 12.652c9.851-1.11 14.68-5.94 21.586-5.94 6.906 0 28.83-2.414 28.83-2.414l21.055-15.55-4.395-8.74z" fill="#fbbebe" data-name="Path 20"/><path d="M969.318 404.024l-19.703 3.863-1.304.242s-15.598-4.154-16.13-4.492c-.53-.338-14.68-19.413-14.68-19.413s7.147.097 12.797-3.139c.194-.096.387-.241.58-.386a12.618 12.618 0 005.312-6.52l.29-.868c.58-2.318.628-5.12-.145-8.5-1.932-8.064 2.511-10.286 8.403-10.093 8.499.29 20.089 5.602 20.089 5.602.145 2.705.772 5.36 1.835 7.872l.29.724a22.548 22.548 0 0010.479 11.01l.628.29c.627.29 1.303.58 1.98.821 15.018 5.747-10.721 22.987-10.721 22.987z" fill="#fbbebe" data-name="Path 21"/><path d="M966.952 368.916a24.907 24.907 0 01-30.714 5.312c.87-2.463 1.015-5.554.097-9.369-4.684-19.702 28.492-4.49 28.492-4.49a25.002 25.002 0 002.125 8.547z" data-name="Path 22"/><path d="M973.181 351.435c0 4.636-1.304 9.223-3.767 13.135a25.533 25.533 0 01-2.752 3.622c-4.346 4.78-10.383 7.63-16.854 8.016-.483.048-1.014.048-1.497.048-13.715 0-24.87-11.107-24.87-24.87 0-13.763 11.107-24.87 24.87-24.87 13.715.049 24.87 11.204 24.87 24.919z" fill="#fbbebe" data-name="Path 23"/><path d="M969.318 404.024l-19.703 3.863-1.304.241s-15.598-4.153-16.13-4.49c-.53-.339-14.68-19.414-14.68-19.414s7.147.097 12.797-3.139c.194-.096.387-.241.58-.386 1.787 1.932 7.63 7.389 16.805 7.34 1.16 0 2.367-.096 3.526-.241 2.752-.435 5.553-.724 8.354-.966 5.36-.58 13.521-2.173 17.82-6.906l.627.29c.628.29 1.304.58 1.98.821 15.067 5.747-10.672 22.987-10.672 22.987z" data-name="Path 24"/><path d="M991.58 454.44c.145 3.815 2.946 46.6 2.946 46.6h-86.152l.58-26.946.483-21.538.144-7.098.677-24.532-2.512-2.222-13.57-11.976c.097-.338 3.767-11.252 3.284-12.749-.483-1.497 6.568-7.775 8.982-8.113a43.016 43.016 0 004.057-1.207c4.056-1.449 9.513-3.525 10.093-3.187.87.434 9.32-.338 9.658-.387 0 0 6.23 8.065 17.433 8.017 1.16 0 2.367-.097 3.526-.29 2.752-.435 5.553-.724 8.354-.966 5.602-.58 14.342-2.366 18.447-7.63 0 0 1.98.097 5.795 1.256s8.45 1.159 8.45 1.159c2.27.628 4.444 1.448 6.569 2.414 2.028.966 4.104 1.739 6.23 2.415 0 0 3.959 1.014 5.021 11.059 1.063 10.044 2.077 15.694 2.077 15.694l-20.524 17.771c-.048 0-.193 18.64-.048 22.456z" fill="#38d39f" data-name="Path 25"/><path d="M894.225 484.284l3.042 4.829 11.3 4.008 7.775-14.198-7.147-4.829-11.493-4.49-6.568 3.814 3.09 10.866z" fill="#fbbebe" data-name="Path 26"/><path d="M990.71 508.091s16.033-1.207 22.601-8.644c6.568-7.437 23.132-11.396 23.132-11.396s39.888-4.685 24.145 30.568c0 0-1.014 3.96-3.09 5.167-2.077 1.207-7.1 4.298-7.1 4.298l-61.233-5.36 1.546-14.633z" fill="#65617d" data-name="Path 27"/><path d="M1022.148 532.865a18.88 18.88 0 01-3.187 10.527c-10.286.918-33.128 3.043-37.908 4.395-5.892 1.642-17.723-1.207-19.027-1.545l-.145-.049s-2.27-6.954-3.38-11.396c-.483-2.029-.725-3.526-.435-3.622 1.062-.338 10.527-2.946 10.383-1.45-.145 1.498 28.491-11.154 28.491-11.154l.87 11.058c2.945 3.429 24.338-1.545 24.338 3.236z" data-name="Path 28"/><path d="M1051.654 523.641l-1.207 4.491a34.967 34.967 0 01-9.658 7.582c-5.698 2.946-15.695 7.775-15.695 7.775s-36.75 3.09-42.98 4.829c-6.229 1.739-19.17-1.545-19.17-1.545s-4.83-14.68-3.816-15.019c1.014-.338 10.528-2.946 10.383-1.449-.145 1.498 28.492-11.155 28.492-11.155l53.651 4.491z" fill="#65617d" data-name="Path 29"/><path d="M949.325 562.323s18.061 1.255 22.36 2.897c4.297 1.642 35.01-.628 35.01-.628s19.848.387 25.498 2.077c5.65 1.69 3.67-17.385-6.81-19.51-10.478-2.125-25.255 1.014-25.255 1.014s-16.66-2.173-18.69-2.414c-2.027-.242-15.356.144-15.356.144l-16.757 16.42z" fill="#fbbebe" data-name="Path 30"/><path d="M878.289 514.707s23.904 2.173 30.472 6.085l-30.472-6.085z" data-name="Path 31"/><path d="M1027.267 499.061s-18.688 4.54-26.029 11.252l26.03-11.252z" data-name="Path 32"/><path d="M879.69 509.25c.386.145 11.01 1.498 10.72 2.512-.29 1.014-10.72-2.512-10.72-2.512z" data-name="Path 33"/><path d="M862.98 535.907l1.4 5.168s3.092 2.414 3.816 3.621c.724 1.208 4.636 1.546 4.636 1.546s4.153 1.883 5.167 2.945c1.014 1.063 12.266 4.298 22.793 5.699 10.528 1.4 30.038 3.96 34.19 5.36a47.943 47.943 0 008.983 1.883s7.775 4.153 11.928 3.091c4.153-1.062 11.203-19.848 11.203-19.848s-27.284-6.374-28.153-8.45c-.87-2.077-27.092-11.735-27.092-11.735l-15.55.386-33.32 10.334z" data-name="Path 34"/><path d="M861.966 536.438l1.4 5.168s3.091 2.414 3.816 3.621c.724 1.208 4.636 1.546 4.636 1.546s4.153 1.883 5.167 2.946c1.014 1.062 12.266 4.297 22.793 5.698 10.528 1.4 30.038 3.96 34.19 5.36a47.933 47.933 0 008.983 1.884s7.775 4.153 11.928 3.09c4.153-1.062 11.203-19.847 11.203-19.847s-27.284-6.375-28.154-8.451c-.869-2.077-39.357-17.772-39.357-17.772l-12.073-2.752-24.532 19.51z" fill="#65617d" data-name="Path 35"/><path d="M897.267 405.038l-3.042 1.738-5.795 39.696s-3.09 2.946-2.125 4.829c.966 1.883-.193 5.167-.193 5.167s-5.216 2.27-4.057 3.622c1.16 1.352.628 3.96-.144 5.698-.773 1.739-2.077 4.83 0 5.36 2.076.532.338 7.244.338 7.244s7.292-.82 6.76 3.429c-.241 1.738 8.258 7.244 8.258 7.244s-9.61-17.433 11.928-15.019l1.835-9.803s1.835-5.553 0-7.244c-1.835-1.69.435-9.9.435-9.9l.386-35.638-14.584-6.423z" fill="#38d39f" data-name="Path 36"/><path d="M892.583 456.323c.386.628 12.024 1.932 12.749 4.008.724 2.077-12.749-4.008-12.749-4.008z" data-name="Path 37"/><path d="M888.913 466.175s1.593-4.926 5.312-4.057c3.718.87-5.312 4.057-5.312 4.057z" data-name="Path 38"/><path d="M886.885 473.37s2.8-6.568 6.567-6.085c3.767.483-6.567 6.085-6.567 6.085z" data-name="Path 39"/><path d="M1013.36 473.225l-1.208 7.244s-12.41 22.793-14.68 23.131c-2.27.338-14.488-15.211-14.488-15.211l-3.284-15.212 12.894-2.463 5.747-5.65c0 .048 14.487 1.449 15.018 8.161z" fill="#fbbebe" data-name="Path 40"/><path d="M1007.468 410.93l4.684 3.283v17.433s3.622-.338 2.753 1.546c-.87 1.883-2.608 2.945-1.014 4.684 1.593 1.738 1.207 5.022-.194 5.36-1.4.338-3.815 1.739-1.545 2.608 2.27.87 3.622 2.415 3.622 3.477 0 1.062.193 2.608-.676 3.815-.87 1.207-1.739 3.96-.676 5.022 1.062 1.063-.87 6.375-.87 6.375s3.284 8.45.194 10.865c0 0-1.4 4.83-1.545 5.167 0 0 2.172-16.805-19.559-9.706 0 0-.386-6.423-.53-8.79-.146-2.365 1.883-3.042.772-4.49-1.11-1.449-3.912-4.684-2.608-5.505 1.304-.821.87-2.415.338-3.622-.531-1.208-2.318-1.208-.676-2.656 1.642-1.449 2.656-2.85 1.642-3.526-1.014-.676-2.656-2.945-1.304-3.96 1.352-1.014 1.4-16.032 1.4-16.032s5.458-22.214 15.792-11.349z" fill="#38d39f" data-name="Path 41"/><path d="M1005.295 440.629s6.616-1.787 6.857 0c.242 1.786-6.857 0-6.857 0z" data-name="Path 42"/><path d="M997.81 445.603s9.078-2.27 10.237-.483c1.16 1.786-10.237.483-10.237.483z" data-name="Path 43"/><path d="M995.781 450.383s13.667-1.883 14.536.87c.87 2.752-14.536-.87-14.536-.87z" data-name="Path 44"/><path d="M997.81 456.323c.483.145 13.135 1.014 13.376 3.429.242 2.414-13.376-3.429-13.376-3.429z" data-name="Path 45"/><path d="M901.372 464.098h98.08c2.8 0 5.07 2.27 5.07 5.07v51.334a5.07 5.07 0 01-5.07 5.07h-98.08a5.07 5.07 0 01-5.07-5.07V469.17a5.07 5.07 0 015.07-5.07z" fill="#3f3d56" data-name="Path 46"/><path d="M946.428 494.76a4.008 4.008 0 110 .1z" fill="#e7effd" data-name="Ellipse 14"/><path d="M914.459 426.43s10.383 7.92 18.399 1.884c-.048 0-13.57 1.256-18.4-1.883z" data-name="Path 47"/><path d="M966.951 428.556s10.383 7.92 18.4 1.883c0 0-13.57 1.256-18.4-1.883z" data-name="Path 48"/><path d="M973.181 351.435c0 4.636-1.304 9.223-3.767 13.135-.193-6.906-1.835-13.86-5.601-19.606-3.43-5.312-13.908-14.584-21.152-11.977-1.545.58-2.704 1.835-3.139 3.38-.724 2.705 1.352 3.864 2.704 5.989 2.27 3.718 3.188 8.113 2.512 12.41-.097.58-.194 1.16-.387 1.74-1.11 4.249-3.718 9.126-1.062 12.603 1.883 2.415 5.891 3.284 6.423 6.278.048.29.048.58.048.87-.145 2.028-1.835 3.814-2.608 5.794-.87 2.366-.386 4.684.531 7.05 1.208 3.091 3.091 6.182 3.574 9.466.483 3.284-.531 6.278-1.69 9.32-1.111 2.898-2.415 5.795-2.85 8.79-.82 5.746 1.256 12.362-2.318 16.901-.386.531-.917.918-1.593 1.062-2.318.242-1.932-3.911-3.767-5.312.193 2.415.386 4.926-.483 7.196-.869 2.27-3.139 4.201-5.553 3.815l-.821-5.409c-1.642 1.594-3.574 2.85-5.747 3.574.87-5.747 2.898-11.3 5.988-16.226-6.084 2.946-9.61 9.272-12.797 15.212-1.98 3.718-4.008 7.775-3.332 11.928.29 1.69 1.014 3.283 1.159 5.022.145 1.738-.483 3.718-2.028 4.346-1.4.58-2.994-.097-4.008-1.255l-.194-.194c-.096-.145-.193-.241-.29-.386-.192-.241-.337-.531-.482-.82a14.32 14.32 0 01-.966-3.188l-.097-.483c-1.593-7.05-3.042-14.343-1.883-21.49.435-2.607 1.207-5.215 1.11-7.92-.096-1.496-.386-2.993-.917-4.394-1.4-3.96-4.105-7.582-5.65-11.542 0-.048-.048-.048-.048-.096-.821-2.125-1.208-4.733.29-6.423.772-.87 1.931-1.304 2.897-1.932 2.994-1.931 4.346-5.65 4.877-9.223.242-1.594.387-3.236.387-4.83 4.056-1.448 9.513-3.525 10.093-3.187.869.435 9.32-.338 9.658-.386 2.56-1.497 4.829-3.67 5.94-6.857l.29-.87c-12.073-6.519-16.613-21.586-10.093-33.658 6.519-12.073 21.586-16.613 33.659-10.093 8.16 4.394 13.183 12.797 13.183 21.876z" data-name="Path 49"/><path d="M944.4 355.443c-1.16 4.25-3.719 9.127-1.063 12.604 1.883 2.414 5.892 3.284 6.423 6.278.435 2.414-1.69 4.394-2.56 6.664-2.028 5.408 3.284 10.769 4.105 16.515.87 6.23-3.67 11.88-4.54 18.11-.82 5.746 1.256 12.362-2.317 16.902-.386.53-.918.917-1.594 1.062-2.318.241-1.931-3.912-3.767-5.312.194 2.415.387 4.926-.482 7.195-.87 2.27-3.14 4.153-5.554 3.815l-.82-5.408c-1.643 1.593-3.574 2.849-5.748 3.622.87-5.747 2.898-11.3 5.989-16.226-6.085 2.946-9.61 9.272-12.798 15.211-1.98 3.719-4.008 7.775-3.332 11.977.29 1.69 1.014 3.284 1.16 5.022.144 1.738-.484 3.718-2.029 4.346-1.449.628-3.187-.193-4.153-1.448-.966-1.256-1.352-2.85-1.69-4.395-1.642-7.195-3.187-14.632-1.98-21.924.434-2.656 1.207-5.264 1.11-7.92-.193-5.843-4.49-10.624-6.615-16.033-.821-2.125-1.208-4.732.29-6.422.772-.87 1.931-1.304 2.897-1.932 2.994-1.98 4.346-5.65 4.877-9.224a32.01 32.01 0 00-.338-11.541c-1.207-5.699-4.008-11.204-3.284-16.999.677-5.65 4.54-10.334 7.196-15.405 3.38-6.567 4.636-14.004 3.718-21.296-.434-3.38-1.255-7.34 1.063-9.9 2.752-3.042 8.113-1.883 11.3-4.54 1.545-1.303 2.318-3.283 3.428-4.925 2.946-4.057 8.065-5.892 12.894-4.588 2.173.628 4.105 1.884 6.278 2.56 3.042.966 6.278.869 9.465 1.255 3.187.387 6.52 1.449 8.355 4.057.965 1.4 1.4 3.09 2.318 4.54 1.931 3.09 5.553 4.587 8.306 6.953a16.089 16.089 0 014.54 17.192c-1.643 4.587-5.458 8.644-5.12 13.473.145 1.98.966 3.96.725 5.94-.773 5.505-8.741 6.616-11.494 11.397.242-7.92-1.304-16.033-5.602-22.649-3.428-5.312-13.907-14.584-21.151-12.025-1.545.58-2.704 1.836-3.139 3.38-.724 2.705 1.352 3.864 2.704 5.989 2.511 4.153 3.236 9.272 2.029 14.053z" fill="#3f3d56" data-name="Path 50"/><g data-name="Group 1"><path d="M910.547 382.824a34.503 34.503 0 00-.676-7.389c-1.014-4.829-3.187-9.561-3.38-14.39-.29 5.408 2.221 10.624 3.38 15.936.387 1.931.628 3.863.676 5.843z" data-name="Path 51"/><path d="M931.12 421.988c.434-.773.869-1.545 1.303-2.27-6.084 2.946-9.61 9.272-12.797 15.212-1.835 3.429-3.718 7.196-3.429 11.01.242-3.283 1.835-6.519 3.429-9.465 2.946-5.456 6.23-11.3 11.493-14.487z" data-name="Path 52"/><path d="M917.453 453.233c-.193 1.303-.821 2.559-2.028 3.042-1.449.58-3.187-.193-4.153-1.449-.966-1.255-1.352-2.849-1.69-4.394-1.16-5.168-2.318-10.431-2.415-15.695-.097 5.747 1.11 11.59 2.415 17.24.338 1.545.724 3.139 1.69 4.395.966 1.255 2.704 2.028 4.153 1.448 1.593-.628 2.221-2.656 2.076-4.346-.048-.097-.048-.145-.048-.241z" data-name="Path 53"/><path d="M944.98 350.276a15.732 15.732 0 01-.58 3.67c-.821 3.139-2.463 6.664-2.174 9.658.242-2.608 1.497-5.505 2.174-8.113.434-1.738.627-3.477.58-5.215z" data-name="Path 54"/><path d="M917.694 327.24a35.052 35.052 0 00-.29-5.505c-.192-1.352-.386-2.752-.482-4.153-.097 1.884.241 3.864.483 5.747.193 1.256.29 2.56.29 3.912z" data-name="Path 55"/><path d="M949.76 374.421c0-.048 0-.096-.048-.145-.387 1.787-1.836 3.429-2.512 5.264a7.971 7.971 0 00-.434 3.38 5.987 5.987 0 01.434-1.835c.87-2.27 2.994-4.298 2.56-6.664z" data-name="Path 56"/><path d="M908.712 420.588c-.193-5.844-4.49-10.624-6.616-16.033-.338-.87-.58-1.739-.676-2.656-.096 1.449.097 2.897.676 4.201 2.077 5.36 6.23 10.045 6.568 15.743.048-.386.048-.82.048-1.255z" data-name="Path 57"/><path d="M963.813 342.452c-3.477-5.312-13.908-14.584-21.152-12.024-1.545.58-2.704 1.835-3.139 3.38-.193.58-.193 1.208-.048 1.835 0-.096.048-.193.048-.241.435-1.545 1.642-2.801 3.14-3.38 7.195-2.608 17.674 6.712 21.15 12.024 3.912 5.988 5.506 13.232 5.602 20.427.145-7.775-1.4-15.598-5.601-22.02z" data-name="Path 58"/><path d="M980.908 353.656c-.773 5.505-8.693 6.568-11.494 11.397v1.593c2.753-4.829 10.721-5.94 11.494-11.396a9.324 9.324 0 000-1.642c.048 0 .048.048 0 .048z" data-name="Path 59"/><path d="M985.35 334.291c-1.641 4.588-5.456 8.644-5.118 13.473v.194c.338-4.298 3.622-7.968 5.07-12.121.676-1.884.966-3.912.87-5.892-.049 1.449-.339 2.897-.822 4.346z" data-name="Path 60"/><path d="M944.4 431.067c-.387.531-.918.917-1.594 1.062-2.318.242-1.932-3.911-3.767-5.312.048.531.097 1.11.145 1.642 1.739 1.497 1.4 5.457 3.67 5.216a2.77 2.77 0 001.594-1.063c2.076-2.608 2.27-5.843 2.221-9.272-.096 2.85-.531 5.554-2.27 7.727z" data-name="Path 61"/><path d="M938.556 434.013c-.869 2.27-3.139 4.2-5.553 3.815-.29-1.787-.531-3.622-.821-5.409-1.546 1.545-3.429 2.704-5.457 3.477-.097.531-.193 1.11-.29 1.642a15.29 15.29 0 005.747-3.622c.29 1.835.531 3.622.82 5.409 2.415.386 4.685-1.546 5.554-3.815.531-1.594.773-3.236.628-4.926 0 1.207-.241 2.366-.628 3.429z" data-name="Path 62"/><path d="M946.766 414.165a26.783 26.783 0 00-.193 4.394c0-.965.096-1.883.193-2.849.869-5.94 5.022-11.348 4.636-17.24-.338 5.312-3.864 10.286-4.636 15.695z" data-name="Path 63"/></g><path d="M1090.336 496.502s-3.284 15.26 11.3 17.095l.917-1.69c0-.049-11.3-10.673-12.217-15.405z" fill="#38d39f" data-name="Path 64"/><path d="M1107.238 511.761l-3.38.725-.339.096s-9.079-7.34-8.934-23.759a39.135 39.135 0 004.346 6.857c3.526 4.733 7.63 11.06 8.307 16.081z" fill="#38d39f" data-name="Path 65"/><path d="M1108.397 513.355a2.219 2.219 0 01-1.835.242c-8.693-2.029-5.795-30.424-5.795-30.424.482.241 1.014 3.863 2.994 8.5 3.525 8.209 7.388 19.606 4.636 21.682z" fill="#38d39f" data-name="Path 66"/><path d="M1127.713 496.502s.58 15.26-14.004 17.095l-.918-1.69c0-.049 14.005-10.673 14.922-15.405z" fill="#38d39f" data-name="Path 67"/><path d="M1123.512 488.823c.096 16.42-11.638 23.76-11.638 23.76l-.338-.097-3.38-.725c.675-5.022 4.78-11.396 8.354-16.129 2.028-2.56 4.346-4.877 7.002-6.809z" fill="#38d39f" data-name="Path 68"/><path d="M1111.487 511.858c-.53.628-1.159 1.16-1.931 1.497a4.284 4.284 0 01-.725.242c-2.125.483-2.897-1.063-2.752-3.67.193-4.685 3.139-12.798 5.795-18.834 1.883-4.395 5.022-7.679 5.457-7.92-.049 0-.145 22.118-5.844 28.685z" fill="#38d39f" data-name="Path 69"/><path d="M1109.024 473.177s-9.754 34.528-1.352 39.695c8.403 5.167 3.526-36.605 1.352-39.695z" fill="#38d39f" data-name="Path 70"/><path d="M1090.336 496.502s-3.284 15.26 11.3 17.095l.917-1.69c0-.049-11.3-10.673-12.217-15.405z" data-name="Path 71"/><path d="M1107.238 511.761l-3.38.725-.339.096s-9.079-7.34-8.934-23.759a39.135 39.135 0 004.346 6.857c3.526 4.733 7.63 11.06 8.307 16.081z" data-name="Path 72"/><path d="M1108.397 513.355a2.219 2.219 0 01-1.835.242c-8.693-2.029-5.795-30.424-5.795-30.424.482.241 1.014 3.863 2.994 8.5 3.525 8.209 7.388 19.606 4.636 21.682z" data-name="Path 73"/><path d="M1127.713 496.502s.58 15.26-14.004 17.095l-.918-1.69c0-.049 14.005-10.673 14.922-15.405z" data-name="Path 74"/><path d="M1123.512 488.823c.096 16.42-11.638 23.76-11.638 23.76l-.338-.097-3.38-.725c.675-5.022 4.78-11.396 8.354-16.129 2.028-2.56 4.346-4.877 7.002-6.809z" data-name="Path 75"/><path d="M1111.487 511.858c-.53.628-1.159 1.16-1.931 1.497a4.284 4.284 0 01-.725.242c-2.125.483-2.897-1.063-2.752-3.67.193-4.685 3.139-12.798 5.795-18.834 1.883-4.395 5.022-7.679 5.457-7.92-.049 0-.145 22.118-5.844 28.685z" data-name="Path 76"/><path d="M1109.024 473.177s-9.754 34.528-1.352 39.695c8.403 5.167 3.526-36.605 1.352-39.695z" data-name="Path 77"/><path d="M1090.336 496.502s-1.932 15.26 12.652 17.095l.917-1.69c0-.049-12.652-10.673-13.57-15.405z" fill="#38d39f" data-name="Path 78"/><path d="M1108.59 511.761l-3.38.725-.339.096s-10.43-7.34-10.286-23.759c0 0 2.656 2.85 5.699 6.857 3.525 4.733 7.63 11.06 8.306 16.081z" fill="#38d39f" data-name="Path 79"/><path d="M1108.59 511.762l-3.38.724c-3.236-2.8-4.492-10.19-4.975-16.854 3.574 4.781 7.679 11.107 8.355 16.13z" data-name="Path 80"/><path d="M1109.749 513.355a2.219 2.219 0 01-1.835.242c-8.693-2.029-7.147-30.424-7.147-30.424.483.241 2.366 3.863 4.346 8.5 3.573 8.209 7.437 19.606 4.636 21.682z" fill="#38d39f" data-name="Path 81"/><path d="M1127.713 496.502s1.932 15.26-12.652 17.095l-.918-1.69c0-.049 12.653-10.673 13.57-15.405z" fill="#38d39f" data-name="Path 82"/><path d="M1123.512 488.823c.097 16.42-10.286 23.76-10.286 23.76l-.338-.097-3.38-.725c.675-5.022 4.78-11.396 8.354-16.129 2.994-3.96 5.65-6.809 5.65-6.809z" fill="#38d39f" data-name="Path 83"/><path d="M1117.813 495.632c-.434 6.182-1.593 13.039-4.346 16.226a3.858 3.858 0 01-.628.628l-3.38-.724c.676-5.023 4.78-11.349 8.354-16.13z" data-name="Path 84"/><path d="M1112.84 511.858c-.532.628-1.16 1.16-1.932 1.497a4.284 4.284 0 01-.725.242c-2.124.483-2.897-1.063-2.752-3.67.193-4.685 3.139-12.798 5.795-18.834 1.883-4.395 3.67-7.679 4.104-7.92-.048 0 1.208 22.118-4.49 28.685z" fill="#38d39f" data-name="Path 85"/><path d="M1109.749 513.355c-.483 0-.966-.145-1.352-.434-4.105-2.56-4.202-12.122-3.188-21.249 3.477 8.21 7.34 19.607 4.54 21.683z" data-name="Path 86"/><path d="M1112.84 511.858c-.484 1.014-1.111 1.546-1.932 1.497a2.419 2.419 0 01-1.16-.434 6.182 6.182 0 01-2.317-2.994c.193-4.685 3.139-12.798 5.795-18.834.917 8.403 1.207 17.337-.387 20.765z" data-name="Path 87"/><path d="M1109.024 473.177s-8.354 34.528 0 39.695c8.355 5.167 2.174-36.605 0-39.695z" fill="#38d39f" data-name="Path 88"/><path d="M1125.106 511.23h-34.867v5.747h5.312l.145.676 2.125 11.204h20.282l2.125-11.204.145-.676h4.733v-5.747z" fill="#d4dfec" data-name="Path 89"/><path d="M1125.106 511.23h-34.867v5.747h5.312l.145.676 2.125 11.204h20.234l2.173-11.204.097-.676h4.78v-5.747z" data-name="Path 90"/><path d="M1122.16 514.61l-.58 3.043-2.125 11.204h-20.282l-2.125-11.204-.58-3.042h25.692z" fill="#d4dfec" data-name="Path 91"/><path d="M1122.16 514.61l-.58 3.043h-24.532l-.58-3.042h25.692z" data-name="Path 92"/><path d="M1091.591 511.23h34.867v5.795h-34.867v-5.795z" fill="#d4dfec" data-name="Rectangle 38"/><path d="M828.983 474.288a9.734 9.734 0 00-1.159 2.221 3.353 3.353 0 01-.241.628l-.435-.145a5.786 5.786 0 00-1.835-.145c0-.242 0-.483.049-.773.096-2.752-.242-6.519-2.85-4.925-2.51 1.545-.724 4.153.918 5.795.145.144.29.29.435.386-1.45 1.062-1.739 3.477-1.98 6.036-.242 2.56-2.415 5.312-3.815 6.906-.145.145-.29.29-.387.435-1.159-.918-2.704-1.353-4.153-1.063l-.193-.724c-1.159-4.202-3.574-11.445-6.664-13.039l.386-.531c1.304-1.69 2.753-4.25.628-4.877-2.125-.628-2.366 2.173-2.221 4.346 0 .241.048.531.048.772a3.21 3.21 0 00-2.27 1.111c-.096-.145-.193-.241-.338-.386-1.738-2.077-4.974-5.36-5.988-2.898-.918 2.318 1.932 5.312 3.912 7.1l.144.096c-1.352 5.457 4.492 9.9 7.679 11.831.145.097.29.193.386.242-4.346 5.118-7.05 14.729-7.05 14.729l12.217 2.22s8.065-6.953 7.05-13.52h.097c8.065-1.594 9.9-10.239 8.645-15.357l.144-.049c1.45-.58 2.753-1.593 3.719-2.8 2.173-3.14-2.56-6.713-4.878-3.622z" fill="#38d39f" data-name="Path 93"/><path d="M828.983 474.288a9.734 9.734 0 00-1.159 2.221 3.353 3.353 0 01-.241.628l-.435-.145a5.786 5.786 0 00-1.835-.145c0-.242 0-.483.049-.773.096-2.752-.242-6.519-2.85-4.925-2.51 1.545-.724 4.153.918 5.795.145.144.29.29.435.386-1.45 1.062-1.739 3.477-1.98 6.036-.242 2.56-2.415 5.312-3.815 6.906-.145.145-.29.29-.387.435-1.159-.918-2.704-1.353-4.153-1.063l-.193-.724c-1.159-4.202-3.574-11.445-6.664-13.039l.386-.531c1.304-1.69 2.753-4.25.628-4.877-2.125-.628-2.366 2.173-2.221 4.346 0 .241.048.531.048.772a3.21 3.21 0 00-2.27 1.111c-.096-.145-.193-.241-.338-.386-1.738-2.077-4.974-5.36-5.988-2.898-.918 2.318 1.932 5.312 3.912 7.1l.144.096c-1.352 5.457 4.492 9.9 7.679 11.831.145.097.29.193.386.242-4.346 5.118-7.05 14.729-7.05 14.729l12.217 2.22s8.065-6.953 7.05-13.52h.097c8.065-1.594 9.9-10.239 8.645-15.357l.144-.049c1.45-.58 2.753-1.593 3.719-2.8 2.173-3.14-2.56-6.713-4.878-3.622z" data-name="Path 94"/><path d="M804.741 477.813l-1.449 4.153s-.772-.58-1.786-1.449c-1.98-1.738-4.83-4.78-3.912-7.099.966-2.51 4.201.821 5.988 2.898.676.869 1.16 1.497 1.16 1.497z" fill="#38d39f" data-name="Path 95"/><path d="M807.735 475.447c-.434.579-.917 1.11-1.4 1.642-.145-.725-.193-1.45-.242-2.174-.096-2.124.097-4.974 2.222-4.346 2.124.628.724 3.14-.58 4.878z" fill="#38d39f" data-name="Path 96"/><path d="M826.086 476.074c-.048 1.353-.193 2.463-.193 2.463a18.355 18.355 0 01-1.787-1.593c-1.594-1.69-3.38-4.25-.918-5.795 2.656-1.594 2.994 2.221 2.898 4.925z" fill="#38d39f" data-name="Path 97"/><path d="M834.489 477.861a8.853 8.853 0 01-3.719 2.8 5.506 5.506 0 01-1.255.436l-1.69-2.367c.193-.772.386-1.545.675-2.27a9.734 9.734 0 011.16-2.22c2.366-3.043 7.098.53 4.829 3.621z" fill="#38d39f" data-name="Path 98"/><path d="M803.534 476.316a17.516 17.516 0 011.159 1.448l-1.449 4.153s-.773-.579-1.787-1.448c.242-1.352.773-2.608 1.594-3.67.193-.145.338-.29.483-.483z" data-name="Path 99"/><path d="M807.735 475.446c-.434.58-.917 1.111-1.4 1.642-.145-.724-.193-1.448-.242-2.173.58-.048 1.16.145 1.642.531z" data-name="Path 100"/><path d="M814.737 491.962l-3.525 1.546c-.628-.339-1.255-.677-1.883-1.063-3.719-2.27-11.204-8.065-6.181-14.825 5.022-6.761 9.223 5.408 10.865 11.348.435 1.787.724 2.994.724 2.994z" fill="#38d39f" data-name="Path 101"/><path d="M824.154 476.944c.531-.532 1.208-.87 1.932-.87a29.306 29.306 0 01-.193 2.463c-.58-.483-1.208-1.014-1.739-1.593z" data-name="Path 102"/><path d="M830.77 480.71a5.518 5.518 0 01-1.255.435l-1.69-2.366c.193-.773.386-1.546.675-2.27 1.111.628 1.932 2.221 2.27 4.201z" data-name="Path 103"/><path d="M821.981 496.115a2.425 2.425 0 01-.58.097c-11.879 1.786-3.911-4.588-3.911-4.588s.531-.483 1.256-1.304c1.448-1.593 3.573-4.346 3.815-6.905.386-3.864.82-7.486 5.36-6.423 4.443 1.062 5.312 16.854-5.94 19.123z" fill="#38d39f" data-name="Path 104"/><path d="M799.091 525.67h22.697v5.94h-22.697v-5.94z" fill="#d4dfec" data-name="Rectangle 39"/><path d="M795.47 506.256h29.65v20.814h-29.65v-20.814z" fill="#d4dfec" data-name="Rectangle 40"/><path d="M799.091 525.67h22.697v5.94h-22.697v-5.94z" data-name="Rectangle 41"/><path d="M795.47 506.256h29.65v20.814h-29.65v-20.814z" data-name="Rectangle 42"/><path d="M800.54 525.67h22.697v5.94H800.54v-5.94z" fill="#d4dfec" data-name="Rectangle 43"/><path d="M813.965 488.968c.483 1.787.772 2.994.772 2.994l-3.525 1.545a37.075 37.075 0 01-1.883-1.062c1.352-1.738 2.946-3.09 4.636-3.477z" data-name="Path 105"/><path d="M821.981 496.115a2.386 2.386 0 01-.58.097c-11.879 1.787-3.911-4.588-3.911-4.588s.531-.483 1.256-1.304c2.221 1.739 3.09 3.767 3.235 5.795z" data-name="Path 106"/><path d="M802.665 507.464s6.664-23.808 15.984-16.468-3.815 18.64-3.815 18.64l-12.17-2.172z" fill="#38d39f" data-name="Path 107"/><path d="M805.32 481.238a.724.724 0 110 .1z" data-name="Ellipse 15"/><path d="M805.224 484.715a.724.724 0 110 .1z" data-name="Ellipse 16"/><path d="M826.859 481.914a.724.724 0 110 .1z" data-name="Ellipse 17"/><path d="M809.474 499.782a.724.724 0 110 .1z" data-name="Ellipse 18"/><path d="M825.313 487.71a.724.724 0 110 .1z" data-name="Ellipse 19"/><path d="M817.635 495.436a.724.724 0 110 .1z" data-name="Ellipse 20"/><path d="M807.88 482.735a.724.724 0 110 .1z" data-name="Ellipse 21"/><path d="M824.83 484.184a.724.724 0 110 .1z" data-name="Ellipse 22"/><path d="M822.27 489.93a.724.724 0 110 .1z" data-name="Ellipse 23"/><path d="M815.017 500.017a.724.724 0 11.1.007z" data-name="Ellipse 24"/><path d="M812.806 495.532a.724.724 0 110 .1z" data-name="Ellipse 25"/><path d="M808.99 487.275a.724.724 0 110 .1z" data-name="Ellipse 26"/><path d="M800.54 525.67h22.697v2.173H800.54v-2.174z" data-name="Rectangle 44"/><path d="M796.966 506.256h29.651v20.814h-29.65v-20.814z" fill="#d4dfec" data-name="Rectangle 45"/><path d="M815.462 502.583a.724.724 0 110 .1z" data-name="Ellipse 27"/><path d="M810.97 503.5a.724.724 0 110 .1z" data-name="Ellipse 28"/></g><defs><linearGradient x1=".541" y1=".087" x2=".541" y2="1.087" id="a"><stop stop-color="rgba(128,128,128,0.4 )" offset=".2"/><stop stop-color="rgba(128,128,128,0.5019607843137255 )" offset=".46"/><stop stop-color="rgba(0,0,0,0.6 )" offset="1"/></linearGradient><linearGradient x1=".602" y1="-.327" x2=".602" y2=".673" id="b"><stop stop-color="rgba(128,128,128,0.25098039215686274 )" offset="0"/><stop stop-color="rgba(128,128,128,0.12156862745098039 )" offset=".54"/><stop stop-color="rgba(128,128,128,0.10196078431372549 )" offset="1"/></linearGradient></defs></svg>