<svg xmlns="http://www.w3.org/2000/svg" width="443.511" height="229.189" viewBox="133.965 1701.405 443.511 229.189"><g data-name="Group 140"><g data-name="Group 24" transform="translate(133.965 1701.406)" clip-path="url(&quot;#a&quot;)"><g data-name="Group 23"><g data-name="Group 22"><g data-name="Group 21" transform="translate(98.487)" clip-path="url(&quot;#b&quot;)"><g data-name="Group 20" clip-path="url(&quot;#c&quot;)"><g data-name="Group 18"><g data-name="Group 17" transform="translate(-15058.678 -14730.547)" clip-path="url(&quot;#d&quot;)"><g data-name="Group 16"><path d="M229.188 0v443.51H0V0h229.188z" fill-rule="evenodd" fill="url(&quot;#e&quot;)" transform="rotate(-90 14959.963 -.229)" data-name="Path 256"/></g></g></g><g data-name="Group 19"><path d="M229.188 0v443.51H0V0h229.188z" fill-rule="evenodd" fill="url(&quot;#f&quot;)" transform="rotate(-90 65.35 163.837)" data-name="Path 257"/></g></g></g></g></g></g><path d="M320.11 1870.786h71.22v42.002h-71.22v-42.002z" fill="#bcbcbc" fill-rule="evenodd" data-name="Path 260"/><g data-name="Group 139" transform="translate(133.965 1701.406)" clip-path="url(&quot;#g&quot;)"><g data-name="Group 28"><g data-name="Group 27"><g data-name="Group 26" transform="translate(185.916 167.553)" clip-path="url(&quot;#h&quot;)"><g data-name="Group 25"><path d="M1.63 5.935h68.56A136.868 136.868 0 0171.678 0H0s.735 2.333 1.63 5.935" fill-rule="evenodd" data-name="Path 261"/></g></g></g></g><g data-name="Group 29"><path d="M107.663 1.37h228.183a7.35 7.35 0 017.35 7.35v140.571H100.314V8.721a7.35 7.35 0 017.35-7.351z" fill="#525360" fill-rule="evenodd" data-name="Path 262"/></g><g data-name="Group 30"><path d="M335.846 172.119H107.663a7.35 7.35 0 01-7.35-7.35V149.29h242.884v15.477a7.35 7.35 0 01-7.35 7.35" fill="#bcbcbc" fill-rule="evenodd" data-name="Path 263"/></g><g data-name="Group 31"><path d="M221.755 156.596a4.109 4.109 0 110 8.218 4.109 4.109 0 010-8.218" fill="#525360" fill-rule="evenodd" data-name="Path 264"/></g><g data-name="Group 32"><path d="M182.57 199.055h78.37a3.73 3.73 0 013.73 3.73v5.401h-85.83v-5.4a3.73 3.73 0 013.73-3.73z" fill="#bcbcbc" fill-rule="evenodd" data-name="Path 265"/></g><g data-name="Group 40"><g data-name="Group 39"><g data-name="Group 38" transform="translate(146.424 32.47)" clip-path="url(&quot;#i&quot;)"><g data-name="Group 37" clip-path="url(&quot;#j&quot;)"><g data-name="Group 35"><g data-name="Group 34" transform="translate(-15106.616 -14763.018)" clip-path="url(&quot;#k&quot;)"><g data-name="Group 33"><path d="M229.188 0v443.51H0V0h229.188z" fill-rule="evenodd" fill="url(&quot;#l&quot;)" transform="rotate(-90 14959.963 -.229)" data-name="Path 266"/></g></g></g><g data-name="Group 36"><path d="M229.188 0v443.51H0V0h229.188z" fill-rule="evenodd" fill="url(&quot;#m&quot;)" transform="rotate(-90 25.147 171.571)" data-name="Path 267"/></g></g></g></g></g><g data-name="Group 41"><path d="M150.41 33.1H293.1c1.134 0 2.054.92 2.054 2.054v79.878c0 1.135-.92 2.055-2.054 2.055H150.41a2.055 2.055 0 01-2.054-2.055V35.154c0-1.134.92-2.054 2.054-2.054" fill="#fff" fill-rule="evenodd" data-name="Path 269"/></g><g data-name="Group 45"><g data-name="Group 44"><g data-name="Group 43" transform="translate(189.249 45.157)" clip-path="url(&quot;#n&quot;)"><g data-name="Group 42"><path d="M2.054 0h12.072c1.134 0 2.054.92 2.054 2.054V12.51c0 1.135-.92 2.055-2.054 2.055H2.054A2.055 2.055 0 010 12.509V2.054C0 .92.92 0 2.054 0" fill="#38d29f" fill-rule="evenodd" data-name="Path 270"/></g></g></g></g><g data-name="Group 46"><path d="M211.09 45.157h42.07a.808.808 0 110 1.616h-42.07a.808.808 0 110-1.616" fill="#dfdfdf" fill-rule="evenodd" data-name="Path 271"/></g><g data-name="Group 47"><path d="M211.09 50.015h34.698a.808.808 0 110 1.616H211.09a.808.808 0 110-1.616" fill="#dfdfdf" fill-rule="evenodd" data-name="Path 272"/></g><g data-name="Group 51"><g data-name="Group 50"><g data-name="Group 49" transform="translate(189.249 67.811)" clip-path="url(&quot;#o&quot;)"><g data-name="Group 48"><path d="M2.054 0h12.072c1.134 0 2.054.92 2.054 2.054V12.51c0 1.135-.92 2.055-2.054 2.055H2.054A2.055 2.055 0 010 12.509V2.054C0 .92.92 0 2.054 0" fill="#38d29f" fill-rule="evenodd" data-name="Path 273"/></g></g></g></g><g data-name="Group 52"><path d="M211.09 67.811h42.07a.808.808 0 110 1.616h-42.07a.808.808 0 110-1.616" fill="#dfdfdf" fill-rule="evenodd" data-name="Path 274"/></g><g data-name="Group 53"><path d="M211.09 72.664h42.07a.808.808 0 110 1.616h-42.07a.808.808 0 110-1.616" fill="#dfdfdf" fill-rule="evenodd" data-name="Path 275"/></g><g data-name="Group 57"><g data-name="Group 56"><g data-name="Group 55" transform="translate(189.249 90.465)" clip-path="url(&quot;#p&quot;)"><g data-name="Group 54"><path d="M2.054 0h12.072c1.134 0 2.054.92 2.054 2.054V12.51c0 1.135-.92 2.055-2.054 2.055H2.054A2.055 2.055 0 010 12.509V2.054C0 .92.92 0 2.054 0" fill="#38d29f" fill-rule="evenodd" data-name="Path 276"/></g></g></g></g><g data-name="Group 58"><path d="M211.09 90.465h42.07a.808.808 0 110 1.616h-42.07a.808.808 0 110-1.616" fill="#dfdfdf" fill-rule="evenodd" data-name="Path 277"/></g><g data-name="Group 59"><path d="M211.008 95.318h42.527c.401 0 .726.325.726.726v.165c0 .4-.325.725-.726.725h-42.527a.726.726 0 01-.726-.725v-.165c0-.4.325-.726.726-.726" fill="#dfdfdf" fill-rule="evenodd" data-name="Path 278"/></g><g data-name="Group 60"><path d="M221.755 19.175V9.131" stroke-linejoin="round" stroke-linecap="round" stroke-width="2" stroke="#38d29f" fill="transparent" data-name="Path 279"/></g><g data-name="Group 61"><path d="M221.755 36.067v-13.18" stroke-linejoin="round" stroke-linecap="round" stroke-width="2" stroke="#38d29f" fill="transparent" data-name="Path 280"/></g><g data-name="Group 62"><path d="M221.755 34.241a1.826 1.826 0 110 3.653 1.826 1.826 0 010-3.653" fill="#38d29f" fill-rule="evenodd" data-name="Path 281"/></g><g data-name="Group 63"><path d="M221.755 19.175a1.826 1.826 0 110 3.653 1.826 1.826 0 010-3.653z" stroke-linejoin="round" stroke-linecap="round" stroke="#fff" fill="transparent" data-name="Path 282"/></g><g data-name="Group 64"><path d="M221.755 19.175V9.131" stroke-linejoin="round" stroke-linecap="round" stroke-width="2" stroke="#38d29f" fill="transparent" data-name="Path 283"/></g><g data-name="Group 65"><path d="M221.755 36.067v-13.18" stroke-linejoin="round" stroke-linecap="round" stroke-width="2" stroke="#38d29f" fill="transparent" data-name="Path 284"/></g><g data-name="Group 66"><path d="M221.755 34.241a1.826 1.826 0 110 3.653 1.826 1.826 0 010-3.653" fill="#38d29f" fill-rule="evenodd" data-name="Path 285"/></g><g data-name="Group 67"><path d="M221.755 19.175a1.826 1.826 0 110 3.653 1.826 1.826 0 010-3.653z" stroke-linejoin="round" stroke-linecap="round" stroke="#fff" fill="transparent" data-name="Path 286"/></g><g data-name="Group 68"><path d="M221.755 127.377v14.153" stroke-linejoin="round" stroke-linecap="round" stroke-width="2" stroke="#38d29f" fill="transparent" data-name="Path 287"/></g><g data-name="Group 69"><path d="M221.755 114.594v13.18" stroke-linejoin="round" stroke-linecap="round" stroke-width="2" stroke="#38d29f" fill="transparent" data-name="Path 288"/></g><g data-name="Group 70"><path d="M221.755 112.768a1.826 1.826 0 110 3.652 1.826 1.826 0 010-3.652" fill="#38d29f" fill-rule="evenodd" data-name="Path 289"/></g><g data-name="Group 71"><path d="M139.576 76.928h-14.381" stroke-linejoin="round" stroke-linecap="round" stroke-width="2" stroke="#38d29f" fill="transparent" data-name="Path 290"/></g><g data-name="Group 72"><path d="M152.131 76.928h-13.18" stroke-linejoin="round" stroke-linecap="round" stroke-width="2" stroke="#38d29f" fill="transparent" data-name="Path 291"/></g><g data-name="Group 73"><path d="M152.131 75.102a1.826 1.826 0 110 3.653 1.826 1.826 0 010-3.653" fill="#38d29f" fill-rule="evenodd" data-name="Path 292"/></g><g data-name="Group 76"><g data-name="Group 75"><g data-name="Group 74" transform="translate(186.372 198.827)" clip-path="url(&quot;#q&quot;)"><path d="M0 0h71.222v1.37H0V0z" fill-rule="evenodd" data-name="Path 293"/></g></g></g><g data-name="Group 84"><g data-name="Group 83"><g data-name="Group 82" transform="translate(8.09 80.13)" clip-path="url(&quot;#r&quot;)"><g data-name="Group 81" clip-path="url(&quot;#s&quot;)"><g data-name="Group 79"><g data-name="Group 78" transform="translate(-14968.282 -14810.678)" clip-path="url(&quot;#t&quot;)"><g data-name="Group 77"><path d="M-17.722-315.956h443.51V-86.77h-443.51v-229.187z" fill-rule="evenodd" fill="url(&quot;#u&quot;)" transform="translate(14977.913 15046.503)" data-name="Path 294"/></g></g></g><g data-name="Group 80"><path d="M-17.722-315.956h443.51V-86.77h-443.51v-229.187z" fill-rule="evenodd" fill="url(&quot;#v&quot;)" transform="translate(9.631 235.826)" data-name="Path 295"/></g></g></g></g></g><g data-name="Group 88"><g data-name="Group 87"><g data-name="Group 86" transform="translate(44.255 90.603)" clip-path="url(&quot;#w&quot;)"><g data-name="Group 85"><path d="M2.642 86.994S-6.032 49.101 13.142.25" stroke-linejoin="round" stroke-linecap="round" stroke-width="3" stroke="#525360" fill="transparent" data-name="Path 297"/></g></g></g></g><g data-name="Group 89"><path d="M13.112 166.184h67.113s13.24 16.892-7.305 42.002H19.96s-19.175-17.349-6.848-42.002" fill="#38d29f" fill-rule="evenodd" data-name="Path 298"/></g><g data-name="Group 90"><path d="M56.434 93.364s6.67-11.87 22.65-8.218c0 0-13.209 22.49-25.11 15.126l2.46-6.908z" fill="#4db6ac" fill-rule="evenodd" data-name="Path 299"/></g><g data-name="Group 91"><path d="M52.206 105.96s-.516-12.14-13.755-15.335c0 0 1.37 26.48 11.87 22.143l1.885-6.808z" fill="#4db6ac" fill-rule="evenodd" data-name="Path 300"/></g><g data-name="Group 92"><path d="M47.878 123.89s2.443-12.72 28.01-18.199c0 0-8.154 26.306-29.188 25.252l1.178-7.054z" fill="#4db6ac" fill-rule="evenodd" data-name="Path 301"/></g><g data-name="Group 93"><path d="M45.806 138.165s2.689-13.299-13.29-25.626c0 0-17.35 29.525 12.545 35.077l.745-9.45z" fill="#4db6ac" fill-rule="evenodd" data-name="Path 302"/></g><g data-name="Group 94"><path d="M45.326 156.446s-1.853-18.797 18.235-22.449c0 0-7.337 26.247-18.262 30.927l.027-8.478z" fill="#4db6ac" fill-rule="evenodd" data-name="Path 303"/></g><g data-name="Group 98"><g data-name="Group 97"><g data-name="Group 96" transform="translate(54.063 84.7)" clip-path="url(&quot;#x&quot;)"><g data-name="Group 95"><path d="M.138 15.74S17.488 2.5 24.792.218" stroke-linejoin="round" stroke-linecap="round" stroke="#525360" fill="transparent" data-name="Path 304"/></g></g></g></g><g data-name="Group 102"><g data-name="Group 101"><g data-name="Group 100" transform="translate(46.502 105.475)" clip-path="url(&quot;#y&quot;)"><g data-name="Group 99"><path d="M.167 25.327s21-22.371 29.219-25.11" stroke-linejoin="round" stroke-linecap="round" stroke="#525360" fill="transparent" data-name="Path 305"/></g></g></g></g><g data-name="Group 106"><g data-name="Group 105"><g data-name="Group 104" transform="translate(38.267 90.49)" clip-path="url(&quot;#z&quot;)"><g data-name="Group 103"><path d="M.184.136s12.783 17.348 11.87 21.914" stroke-linejoin="round" stroke-linecap="round" stroke="#525360" fill="transparent" data-name="Path 306"/></g></g></g></g><g data-name="Group 110"><g data-name="Group 109"><g data-name="Group 108" transform="translate(32.293 112.49)" clip-path="url(&quot;#A&quot;)"><g data-name="Group 107"><path d="M.223.05S7.07 31.094 12.55 35.203" stroke-linejoin="round" stroke-linecap="round" stroke="#525360" fill="transparent" data-name="Path 307"/></g></g></g></g><g data-name="Group 114"><g data-name="Group 113"><g data-name="Group 112" transform="translate(45.084 133.77)" clip-path="url(&quot;#B&quot;)"><g data-name="Group 111"><path d="M.215 31.272S11.172 1.14 18.476.226" stroke-linejoin="round" stroke-linecap="round" stroke="#525360" fill="transparent" data-name="Path 308"/></g></g></g></g><g data-name="Group 118"><g data-name="Group 117"><g data-name="Group 116" transform="translate(12.656 166.184)" clip-path="url(&quot;#C&quot;)"><g data-name="Group 115"><path d="M67.57 0H.456C.306.306.16.612 0 .913h65.286s12.916 16.486-6.574 41.09h1.552C80.81 16.892 67.57 0 67.57 0" fill-rule="evenodd" data-name="Path 309"/></g></g></g></g><path d="M0 208.004h443.51v15.034H0v-15.034z" fill="#dfdfdf" fill-rule="evenodd" data-name="Path 310"/><path d="M18.792 223.038h405.922v6.15H18.792v-6.15z" fill="#dfdfdf" fill-rule="evenodd" data-name="Path 311"/><g data-name="Group 121"><g data-name="Group 120"><g data-name="Group 119" transform="translate(18.792 223.038)" clip-path="url(&quot;#D&quot;)"><path d="M0 0h405.922v2.05H0V0z" fill-rule="evenodd" data-name="Path 312"/></g></g></g><g data-name="Group 122"><path d="M315.12 76.928h2.738" stroke-linejoin="round" stroke-linecap="round" stroke-width="2" stroke="#38d29f" fill="transparent" data-name="Path 313"/></g><g data-name="Group 123"><path d="M290.922 76.928h20.49" stroke-linejoin="round" stroke-linecap="round" stroke-width="2" stroke="#38d29f" fill="transparent" data-name="Path 314"/></g><g data-name="Group 124"><path d="M290.922 75.102a1.826 1.826 0 110 3.653 1.826 1.826 0 010-3.653" fill="#38d29f" fill-rule="evenodd" data-name="Path 315"/></g><g data-name="Group 125"><path d="M313.293 75.102a1.826 1.826 0 110 3.653 1.826 1.826 0 010-3.653z" stroke-linejoin="round" stroke-linecap="round" stroke="#fff" fill="transparent" data-name="Path 316"/></g><g data-name="Group 133"><g data-name="Group 132"><g data-name="Group 131" transform="translate(373.786 128.998)" clip-path="url(&quot;#E&quot;)"><g data-name="Group 130" clip-path="url(&quot;#F&quot;)"><g data-name="Group 128"><g data-name="Group 127" transform="translate(-15333.977 -14859.546)" clip-path="url(&quot;#G&quot;)"><g data-name="Group 126"><path d="M-818.72-369.275h443.51v229.187h-443.51v-229.187z" fill-rule="evenodd" fill="url(&quot;#H&quot;)" transform="translate(15778.911 15099.822)" data-name="Path 317"/></g></g></g><g data-name="Group 129"><path d="M-818.72-369.275h443.51v229.187h-443.51v-229.187z" fill-rule="evenodd" fill="url(&quot;#I&quot;)" transform="translate(444.934 240.277)" data-name="Path 318"/></g></g></g></g></g><path d="M381.547 146.552h7.305v45.655h-7.305v-45.655z" fill="#525360" fill-rule="evenodd" data-name="Path 320"/><path d="M381.547 131.486h7.305v15.066h-7.305v-15.066z" fill="#39d29f" fill-rule="evenodd" data-name="Path 321"/><path d="M391.591 150.205h7.305v45.654h-7.305v-45.654z" fill="#525360" fill-rule="evenodd" data-name="Path 322"/><path d="M391.591 135.138h7.305v15.067h-7.305v-15.067z" fill="#4d89ef" fill-rule="evenodd" data-name="Path 323"/><path d="M403.918 157.966h7.305v45.655h-7.305v-45.655z" fill="#525360" fill-rule="evenodd" data-name="Path 324"/><path d="M403.918 142.9h7.305v15.066h-7.305V142.9z" fill="#f55f44" fill-rule="evenodd" data-name="Path 325"/><g data-name="Group 134"><path d="M375.155 160.705h42.003v36.296c0 5.925-4.804 10.729-10.73 10.729h-20.544c-5.925 0-10.729-4.804-10.729-10.73v-36.295z" fill="#38d29f" fill-rule="evenodd" data-name="Path 326"/></g><g data-name="Group 138"><g data-name="Group 137"><g data-name="Group 136" transform="translate(375.155 160.705)" clip-path="url(&quot;#J&quot;)"><g data-name="Group 135"><path d="M0 0v1.826h40.176v36.296c.004 2.399-.8 4.73-2.282 6.615a10.706 10.706 0 004.108-8.441V0H0z" fill-rule="evenodd" data-name="Path 327"/></g></g></g></g></g></g><defs><clipPath id="d"><path d="M0 0h29919.926v29919.926H0V0z" data-name="Rectangle 90"/></clipPath><clipPath id="c"><path d="M454.353-502H223.166a7.474 7.474 0 00-7.446 7.497v159.116a7.474 7.474 0 007.446 7.496h79.513v27.466h-3.625a3.789 3.789 0 00-3.776 3.803v5.511h7.4v3.26h72.163v-3.26h7.4v-5.51a3.79 3.79 0 00-3.775-3.804h-3.41v-.237h-.233v-27.229h79.53a7.474 7.474 0 007.447-7.496v-159.116a7.474 7.474 0 00-7.447-7.497" data-name="Path 258" transform="translate(-215.72 502)"/></clipPath><clipPath id="b"><path d="M0 0h246.08v214.149H0V0z" data-name="Rectangle 91"/></clipPath><clipPath id="a"><path d="M0-502h443.51v229.188H0V-502z" data-name="Path 259" transform="translate(0 502)"/></clipPath><clipPath id="h"><path d="M0 0h71.678v5.935H0V0z" data-name="Rectangle 92"/></clipPath><clipPath id="k"><path d="M0 0h29919.926v29919.926H0V0z" data-name="Rectangle 93"/></clipPath><clipPath id="j"><path d="M322.774-430.88h146.553c1.134 0 2.054.92 2.054 2.054v81.613c0 1.135-.92 2.055-2.054 2.055H322.774a2.055 2.055 0 01-2.054-2.055v-81.613c0-1.134.92-2.054 2.054-2.054" data-name="Path 268" transform="translate(-320.72 430.88)"/></clipPath><clipPath id="i"><path d="M0 0h150.661v85.722H0V0z" data-name="Rectangle 94"/></clipPath><clipPath id="n"><path d="M0 0h16.18v14.564H0V0z" data-name="Rectangle 95"/></clipPath><clipPath id="o"><path d="M0 0h16.18v14.564H0V0z" data-name="Rectangle 96"/></clipPath><clipPath id="p"><path d="M0 0h16.18v14.564H0V0z" data-name="Rectangle 97"/></clipPath><clipPath id="q"><path d="M0 0h71.222v1.37H0V0z" data-name="Rectangle 98"/></clipPath><clipPath id="t"><path d="M0 0h29919.926v29919.926H0V0z" data-name="Rectangle 99"/></clipPath><clipPath id="s"><path d="M91.444-239.036H58.39l.457-3.717c9.34-8.387 15.381-30.73 15.381-30.73a3.099 3.099 0 00-.397.082c-5.479 1.105-9.378 3.356-12.103 6.063l1.16-9.889c17.257-3.716 24.1-26.544 24.1-26.544-11.011 2.443-17.878 6.223-22.142 9.812l1.698-14.528c11.67 4.004 23.74-17.266 23.74-17.266l-.456-.096.229-.146-.347.123c-12.898-2.78-19.792 4.593-22.029 7.656l.17-1.424a618.11 618.11 0 00-.996 2.684v.037a157.316 157.316 0 00-2.507 7.332c-.66 2.06-1.278 4.1-1.853 6.118v-.028s-.534-12.993-14.235-16.412c0 0 1.438 28.338 12.294 23.699a214.993 214.993 0 00-2.538 11.902c-.453 2.499-.85 4.934-1.187 7.305l-.064.073.064-.055-.027.187c-.305 2.152-.563 4.25-.777 6.292.21-3.936-.506-15.304-13.901-25.987 0 0-17.806 31.292 12.555 37.437l.2.173-.045-.141.274.06.123-1.608a168.85 168.85 0 00.105 20.134c.032.457.064.913.096 1.347H21.999c-12.756 26.384 7.086 40.843 7.086 40.843H83.87c21.276-26.818 7.575-40.788 7.575-40.788" data-name="Path 296" transform="translate(-17.722 326.487)"/></clipPath><clipPath id="r"><path d="M0 0h78.064v128.239H0V0z" data-name="Rectangle 100"/></clipPath><clipPath id="w"><path d="M0 0h13.78v87.147H0V0z" data-name="Rectangle 101"/></clipPath><clipPath id="x"><path d="M0 0h24.86v15.922H0V0z" data-name="Rectangle 102"/></clipPath><clipPath id="y"><path d="M0 0h29.458v25.483H0V0z" data-name="Rectangle 103"/></clipPath><clipPath id="z"><path d="M0 0h12.329v22.095H0V0z" data-name="Rectangle 104"/></clipPath><clipPath id="A"><path d="M0 0h12.687v35.386H0V0z" data-name="Rectangle 105"/></clipPath><clipPath id="B"><path d="M0 0h18.505v31.35H0V0z" data-name="Rectangle 106"/></clipPath><clipPath id="C"><path d="M0 0h71.768v42.002H0V0z" data-name="Rectangle 107"/></clipPath><clipPath id="D"><path d="M0 0h405.922v2.05H0V0z" data-name="Rectangle 108"/></clipPath><clipPath id="G"><path d="M0 0h29919.926v29919.926H0V0z" data-name="Rectangle 109"/></clipPath><clipPath id="F"><path d="M861.635-145.338l.046-.069c.095-.146.187-.298.279-.456l.05-.087c.088-.15.172-.302.251-.457l.041-.077c.091-.178.178-.356.256-.544a10.9 10.9 0 00.429-1.146l.046-.15c.04-.142.082-.283.118-.425l.046-.2c.03-.129.057-.258.082-.389 0-.073.028-.146.041-.219.014-.073.041-.256.06-.388.018-.132 0-.15.027-.224.027-.073.027-.278.036-.42v-38.523h-6.323v-18.481h-7.761v18.48h-5.35v-26.543h-7.762v26.544h-2.917v-30.338h-7.762v30.338h-6.848v37.71c0 6.155 5.118 11.14 11.414 11.14h21.914a11.5 11.5 0 009.24-4.592c.113-.162.229-.323.347-.484" data-name="Path 319" transform="translate(-818.72 219.45)"/></clipPath><clipPath id="E"><path d="M0 0h44.724v79.188H0V0z" data-name="Rectangle 110"/></clipPath><clipPath id="J"><path d="M0 0h42.002v44.737H0V0z" data-name="Rectangle 111"/></clipPath><clipPath id="g"><path d="M0-502h443.51v229.188H0V-502z" data-name="Path 328" transform="translate(0 502)"/></clipPath><linearGradient x1=".066" y1=".501" x2="1" y2=".501" id="e"><stop stop-color="#3f3f3f" offset="0"/><stop stop-color="#393939" offset=".1"/><stop stop-color="#333" offset=".2"/><stop stop-color="#2d2d2d" offset=".3"/><stop stop-color="#272727" offset=".4"/><stop stop-color="#212121" offset=".5"/><stop stop-color="#1d1d1d" offset=".6"/><stop stop-color="#1c1c1c" offset=".7"/><stop stop-color="#1b1b1b" offset=".8"/><stop stop-color="#1a1a1a" offset=".9"/><stop stop-color="#191919" offset="1"/></linearGradient><linearGradient x1=".066" y1=".501" x2="1" y2=".501" id="f"><stop stop-color="gray" offset="0"/><stop stop-color="gray" offset=".1"/><stop stop-color="gray" offset=".2"/><stop stop-color="gray" offset=".3"/><stop stop-color="gray" offset=".4"/><stop stop-color="gray" offset=".5"/><stop stop-color="gray" offset=".6"/><stop stop-color="gray" offset=".7"/><stop stop-color="gray" offset=".8"/><stop stop-color="gray" offset=".9"/><stop stop-color="gray" offset="1"/></linearGradient><linearGradient x1=".484" y1=".5" x2=".858" y2=".5" id="l"><stop stop-color="#3f3f3f" offset="0"/><stop stop-color="#393939" offset=".1"/><stop stop-color="#333" offset=".2"/><stop stop-color="#2d2d2d" offset=".3"/><stop stop-color="#272727" offset=".4"/><stop stop-color="#212121" offset=".5"/><stop stop-color="#1d1d1d" offset=".6"/><stop stop-color="#1c1c1c" offset=".7"/><stop stop-color="#1b1b1b" offset=".8"/><stop stop-color="#1a1a1a" offset=".9"/><stop stop-color="#191919" offset="1"/></linearGradient><linearGradient x1=".484" y1=".5" x2=".858" y2=".5" id="m"><stop stop-color="gray" offset="0"/><stop stop-color="gray" offset=".1"/><stop stop-color="gray" offset=".2"/><stop stop-color="gray" offset=".3"/><stop stop-color="gray" offset=".4"/><stop stop-color="gray" offset=".5"/><stop stop-color="gray" offset=".6"/><stop stop-color="gray" offset=".7"/><stop stop-color="gray" offset=".8"/><stop stop-color="gray" offset=".9"/><stop stop-color="gray" offset="1"/></linearGradient><linearGradient x1=".018" y1=".371" x2=".194" y2=".371" id="u"><stop stop-color="#3f3f3f" offset="0"/><stop stop-color="#393939" offset=".1"/><stop stop-color="#333" offset=".2"/><stop stop-color="#2d2d2d" offset=".3"/><stop stop-color="#272727" offset=".4"/><stop stop-color="#212121" offset=".5"/><stop stop-color="#1d1d1d" offset=".6"/><stop stop-color="#1c1c1c" offset=".7"/><stop stop-color="#1b1b1b" offset=".8"/><stop stop-color="#1a1a1a" offset=".9"/><stop stop-color="#191919" offset="1"/></linearGradient><linearGradient x1=".018" y1=".371" x2=".194" y2=".371" id="v"><stop stop-color="gray" offset="0"/><stop stop-color="gray" offset=".1"/><stop stop-color="gray" offset=".2"/><stop stop-color="gray" offset=".3"/><stop stop-color="gray" offset=".4"/><stop stop-color="gray" offset=".5"/><stop stop-color="gray" offset=".6"/><stop stop-color="gray" offset=".7"/><stop stop-color="gray" offset=".8"/><stop stop-color="gray" offset=".9"/><stop stop-color="gray" offset="1"/></linearGradient><linearGradient x1=".843" y1=".264" x2=".944" y2=".264" id="H"><stop stop-color="#3f3f3f" offset="0"/><stop stop-color="#393939" offset=".1"/><stop stop-color="#333" offset=".2"/><stop stop-color="#2d2d2d" offset=".3"/><stop stop-color="#272727" offset=".4"/><stop stop-color="#212121" offset=".5"/><stop stop-color="#1d1d1d" offset=".6"/><stop stop-color="#1c1c1c" offset=".7"/><stop stop-color="#1b1b1b" offset=".8"/><stop stop-color="#1a1a1a" offset=".9"/><stop stop-color="#191919" offset="1"/></linearGradient><linearGradient x1=".843" y1=".264" x2=".944" y2=".264" id="I"><stop stop-color="gray" offset="0"/><stop stop-color="gray" offset=".1"/><stop stop-color="gray" offset=".2"/><stop stop-color="gray" offset=".3"/><stop stop-color="gray" offset=".4"/><stop stop-color="gray" offset=".5"/><stop stop-color="gray" offset=".6"/><stop stop-color="gray" offset=".7"/><stop stop-color="gray" offset=".8"/><stop stop-color="gray" offset=".9"/><stop stop-color="gray" offset="1"/></linearGradient></defs></svg>