<svg xmlns="http://www.w3.org/2000/svg" width="378.577" height="431.628" viewBox="1185.726 1574.629 378.577 431.628"><g data-name="Group 274"><g data-name="Leaves"><path d="M1535.286 1745.513s-12.962 9.714-18.733 61.851c-5.77 52.138-11.17 55.71-20.374 64.584-9.204 8.874-13.443 14.382-35.917 16.211 0 0-48.145-18.086-59.51-14.382-11.363 3.704-20.61 43.067-20.61 43.067s-14.555 44.845-71.827 20.81c0 0-36.503-29.213-53.056-29.246 0 0 15.194-10.851 19.448-41.132 4.254-30.28 37.16-36.839 37.16-36.839s19.51 3.36 28.432 9.65c8.922 6.29 14.889 4.608 17.311-9.735 0 0-4.661-10.545-22.83-10.466-18.17.08-31.49-.179-40.479-8.678-8.988-8.498-19.498-23.487-14.222-48.507 5.275-25.02 20.799-53.949 23.291-70.728 2.493-16.78.857-22.564.857-22.564s3.316 13.3 50.356 14.923c47.04 1.623 54.768 23.305 54.768 23.305s18.586 25.262-11.087 70.007c0 0-25.007 45.227 8.267 32.384 0 0 6.113-17.393 12.71-44.87 6.598-27.479 46.853-25.905 70.437-17.466 23.515 8.554 45.608-2.18 45.608-2.18z" fill="#38d39f" fill-rule="evenodd" data-name="Path 202"/><path d="M1322.788 1698.839l.023-.296c7.808 2.213 22.995 38.289 34.202 68.101l-.25.159c-15.73-42.132-27.851-66.298-33.975-67.964z" fill="#444053" fill-rule="evenodd" data-name="Path 203"/><path d="M1356.695 1766.142l.296.023c9.047 23.868 19.343 53.133 26.34 75.77.728 2.14 1.387 4.395 2.296 6.49l-.546.137a86.434 86.434 0 01-2.227-6.605c-7.067-22.523-17.044-52.06-26.16-75.815z" fill="#444053" fill-rule="evenodd" data-name="Path 204"/><path d="M1384.876 1848.13l.592.045c16.002 43.226 62.887 73.72 63.342 73.994l-9.063 1.68c-.5-.456-38.778-32.13-54.87-75.72z" fill="#444053" fill-rule="evenodd" data-name="Path 205"/><path d="M1501.325 1764.14s-32.64 20.038-40.854 46.08c-8.213 26.043-63.61 62.303-63.61 62.303s-21.938 16.402-34.55 14.709c0 0-24.777 5.403-33.336 1.345-8.558-4.058-37.91-1.868-44.267 7.167" stroke-linejoin="round" stroke-linecap="round" stroke="#444053" fill="transparent" data-name="Path 206"/><path d="M1513.362 1777.102s-18.722 8.732-29.19.119" stroke-linejoin="round" stroke-linecap="round" stroke="#444053" fill="transparent" data-name="Path 207"/><path d="M1512.682 1807.362s-20.274 16.472-51.435.537" stroke-linejoin="round" stroke-linecap="round" stroke="#444053" fill="transparent" data-name="Path 208"/><path d="M1500.044 1845.925s-28.65 10.046-53.817-14.06" stroke-linejoin="round" stroke-linecap="round" stroke="#444053" fill="transparent" data-name="Path 209"/><path d="M1467.37 1881.742s-35.995-3.506-47.092-26.282" stroke-linejoin="round" stroke-linecap="round" stroke="#444053" fill="transparent" data-name="Path 210"/><path d="M1483.095 1752.72s-4.315 18.008 5.68 19.676" stroke-linejoin="round" stroke-linecap="round" stroke="#444053" fill="transparent" data-name="Path 211"/><path d="M1444.545 1754.494s-5.753 24.269 22.652 41.955" stroke-linejoin="round" stroke-linecap="round" stroke="#444053" fill="transparent" data-name="Path 212"/><path d="M1420.805 1778.797s11.728 32.294 33.26 43.373" stroke-linejoin="round" stroke-linecap="round" stroke="#444053" fill="transparent" data-name="Path 213"/><path d="M1410.307 1816.633s6.448 28.966 17.67 32.457" stroke-linejoin="round" stroke-linecap="round" stroke="#444053" fill="transparent" data-name="Path 214"/><path d="M1397.529 1823.978s-7.253 19.031-14.448 18.116" stroke-linejoin="round" stroke-linecap="round" stroke="#444053" fill="transparent" data-name="Path 215"/><path d="M1363.232 1833.885s16.76-1.857 15.555-5.523" stroke-linejoin="round" stroke-linecap="round" stroke="#444053" fill="transparent" data-name="Path 216"/><path d="M1407.78 1743.246s-22.934 45.387-41.902 47.31" stroke-linejoin="round" stroke-linecap="round" stroke="#444053" fill="transparent" data-name="Path 217"/><path d="M1299.609 1808.047s55.94 5.886 70.405-5.557" stroke-linejoin="round" stroke-linecap="round" stroke="#444053" fill="transparent" data-name="Path 218"/><path d="M1291.638 1774.139s47.694 11.619 69.626 3.732" stroke-linejoin="round" stroke-linecap="round" stroke="#444053" fill="transparent" data-name="Path 219"/><path d="M1385.559 1704.957s-5.719 41.482-31.842 52.736" stroke-linejoin="round" stroke-linecap="round" stroke-width=".75" stroke="#444053" fill="transparent" data-name="Path 220"/><path d="M1300.745 1739.649s34.101 10.268 47.425 4.334" stroke-linejoin="round" stroke-linecap="round" stroke-width=".75" stroke="#444053" fill="transparent" data-name="Path 221"/><path d="M1349.434 1690.066s-4.09 22.79-13.724 26.45" stroke-linejoin="round" stroke-linecap="round" stroke-width=".75" stroke="#444053" fill="transparent" data-name="Path 222"/><path d="M1363.332 1855.629s25.833 15.522 23.414 23.672" stroke-linejoin="round" stroke-linecap="round" stroke="#444053" fill="transparent" data-name="Path 223"/><path d="M1362.213 1933.02s19.143-26.445 12.53-47.92" stroke-linejoin="round" stroke-linecap="round" stroke="#444053" fill="transparent" data-name="Path 224"/><path d="M1328.525 1844.473s22.14 22.442 17.982 45.345" stroke-linejoin="round" stroke-linecap="round" stroke="#444053" fill="transparent" data-name="Path 225"/><path d="M1324.621 1933.202s18.658-15.585 11.503-43.118" stroke-linejoin="round" stroke-linecap="round" stroke="#444053" fill="transparent" data-name="Path 226"/><path d="M1292.795 1852.898s21.097 15.155 24.137 33.554" stroke-linejoin="round" stroke-linecap="round" stroke="#444053" fill="transparent" data-name="Path 227"/><path d="M1291.3 1912.097s9.96-16.32 6.937-23.403" stroke-linejoin="round" stroke-linecap="round" stroke="#444053" fill="transparent" data-name="Path 228"/></g><g data-name="leaves"><path d="M1380.796 1692.701s-8.927-28.396-28.93-40.265a45.137 45.137 0 01-18.783-21.459c-1.754-4.29-3.1-8.712-4.088-13.275" stroke-linejoin="round" stroke-linecap="round" stroke-width="2" stroke="#535461" fill="transparent" data-name="Path 114"/><path d="M1316.507 1610.15c1.938 2.916 12.871 7.797 12.871 7.797s-.399-11.947-2.337-14.861c-1.874-2.956-5.83-3.797-8.746-1.86-2.955 1.875-3.796 5.832-1.859 8.747-.01.052.03.115.071.178z" fill="#38d39f" fill-rule="evenodd" data-name="Path 115"/><path d="M1318.592 1632.087c3.188 1.385 15.058-.445 15.058-.445s-6.834-9.832-10.022-11.217c-3.188-1.385-6.933.104-8.329 3.344-1.448 3.23.053 6.922 3.293 8.318z" fill="#38d39f" fill-rule="evenodd" data-name="Path 116"/><path d="M1337.398 1659.318c3.46-.407 12.737-7.958 12.737-7.958s-10.848-5.026-14.308-4.619c-3.471.46-5.93 3.582-5.523 7.042.448 3.524 3.623 5.994 7.094 5.535z" fill="#38d39f" fill-rule="evenodd" data-name="Path 117"/><path d="M1356.28 1676.717c3.506.146 13.942-5.688 13.942-5.688s-9.825-6.768-13.32-6.967c-3.505-.146-6.47 2.542-6.617 6.048-.147 3.506 2.542 6.471 5.995 6.607z" fill="#38d39f" fill-rule="evenodd" data-name="Path 118"/><path d="M1345.058 1624.816c-.73 3.436-9.028 12.011-9.028 12.011s-4.093-11.208-3.363-14.644a6.315 6.315 0 017.512-4.878 6.315 6.315 0 014.879 7.511z" fill="#38d39f" fill-rule="evenodd" data-name="Path 119"/><path d="M1366.897 1645.456c-1.738 3.058-12.204 8.778-12.204 8.778s-.555-11.98 1.172-14.986c1.739-3.059 5.562-4.15 8.62-2.412 3.018 1.675 4.098 5.55 2.412 8.62z" fill="#38d39f" fill-rule="evenodd" data-name="Path 120"/><path d="M1385.358 1668.424c-1.188 3.284-10.547 10.708-10.547 10.708s-2.573-11.701-1.385-14.986c1.188-3.284 4.82-5.015 8.105-3.827 3.284 1.188 4.974 4.757 3.827 8.105z" fill="#38d39f" fill-rule="evenodd" data-name="Path 121"/><path d="M1316.507 1610.15c1.938 2.916 12.871 7.797 12.871 7.797s-.399-11.947-2.337-14.861c-1.874-2.956-5.83-3.797-8.746-1.86-2.955 1.875-3.796 5.832-1.859 8.747-.01.052.03.115.071.178z" fill-rule="evenodd" data-name="Path 122"/><path d="M1318.592 1632.087c3.188 1.385 15.058-.445 15.058-.445s-6.834-9.832-10.022-11.217c-3.188-1.385-6.933.104-8.329 3.344-1.448 3.23.053 6.922 3.293 8.318z" fill-rule="evenodd" data-name="Path 123"/><path d="M1337.398 1659.318c3.46-.407 12.737-7.958 12.737-7.958s-10.848-5.026-14.308-4.619c-3.471.46-5.93 3.582-5.523 7.042.448 3.524 3.623 5.994 7.094 5.535z" fill-rule="evenodd" data-name="Path 124"/><path d="M1356.28 1676.717c3.506.146 13.942-5.688 13.942-5.688s-9.825-6.768-13.32-6.967c-3.505-.146-6.47 2.542-6.617 6.048-.147 3.506 2.542 6.471 5.995 6.607z" fill-rule="evenodd" data-name="Path 125"/><path d="M1345.058 1624.816c-.73 3.436-9.028 12.011-9.028 12.011s-4.093-11.208-3.363-14.644a6.315 6.315 0 017.512-4.878 6.315 6.315 0 014.879 7.511z" fill-rule="evenodd" data-name="Path 126"/><path d="M1366.897 1645.456c-1.738 3.058-12.204 8.778-12.204 8.778s-.555-11.98 1.172-14.986c1.739-3.059 5.562-4.15 8.62-2.412 3.018 1.675 4.098 5.55 2.412 8.62z" fill-rule="evenodd" data-name="Path 127"/><path d="M1385.358 1668.424c-1.188 3.284-10.547 10.708-10.547 10.708s-2.573-11.701-1.385-14.986c1.188-3.284 4.82-5.015 8.105-3.827 3.284 1.188 4.974 4.757 3.827 8.105z" fill-rule="evenodd" data-name="Path 128"/><path d="M1380.115 1692.067s3.352-29.595-10.136-48.568a44.701 44.701 0 01-8.472-27.211c.119-4.654.654-9.22 1.617-13.75" stroke-linejoin="round" stroke-linecap="round" stroke-width="2" stroke="#535461" fill="transparent" data-name="Path 129"/><path d="M1354.751 1590.475c.627 3.453 8.589 12.327 8.589 12.327s4.476-11.073 3.901-14.514a6.376 6.376 0 00-7.339-5.152c-3.452.627-5.777 3.887-5.15 7.34z" fill="#38d39f" fill-rule="evenodd" data-name="Path 130"/><path d="M1347.797 1611.415c2.391 2.576 13.92 5.68 13.92 5.68s-2.239-11.74-4.63-14.316a6.327 6.327 0 00-8.962-.327 6.327 6.327 0 00-.328 8.963z" fill="#38d39f" fill-rule="evenodd" data-name="Path 131"/><path d="M1353.951 1643.901c3.329.98 14.87-2.117 14.87-2.117s-7.889-8.968-11.206-10c-3.37-1.043-6.88.878-7.922 4.247-.98 3.329.878 6.88 4.258 7.87z" fill="#38d39f" fill-rule="evenodd" data-name="Path 132"/><path d="M1364.168 1667.511c3.155 1.541 15.037.421 15.037.421s-6.266-10.2-9.357-11.783c-3.059-1.738-6.934-.658-8.62 2.412-1.739 3.058-.658 6.934 2.412 8.62.145.085.342.182.528.33z" fill="#38d39f" fill-rule="evenodd" data-name="Path 133"/><path d="M1374.91 1615.437c-2.07 2.825-13.147 7.326-13.147 7.326s.791-11.911 2.872-14.788a6.383 6.383 0 018.848-1.439c2.866 2.133 3.497 6.076 1.427 8.9z" fill="#38d39f" fill-rule="evenodd" data-name="Path 134"/><path d="M1386.539 1643.156c-2.78 2.075-14.745 3.069-14.745 3.069s4.33-11.16 7.164-13.223c2.78-2.076 6.792-1.495 8.867 1.286 2.064 2.833 1.495 6.793-1.286 8.868z" fill="#38d39f" fill-rule="evenodd" data-name="Path 135"/><path d="M1394.088 1671.64c-2.39 2.539-13.96 5.52-13.96 5.52s2.385-11.735 4.827-14.263c2.39-2.54 6.441-2.657 8.969-.216 2.528 2.442 2.553 6.42.164 8.959z" fill="#38d39f" fill-rule="evenodd" data-name="Path 136"/></g></g></svg>