<svg xmlns="http://www.w3.org/2000/svg" width="244.938" height="329.925" viewBox="-122.455 622.126 244.938 329.925"><g data-name="Left Leaves"><g data-name="Group 11"><path d="M116.251 876.535s-11.432-1.435-40.147 22.392c-28.715 23.826-33.242 22.985-42.336 22.978-9.095-.007-13.985.716-26.389-9.452 0 0-15.698-33.044-23.343-36.764-7.645-3.72-31.826 11.852-31.826 11.852s-29.606 15.755-47.035-24.843c0 0-4.242-32.984-12.696-41.18 0 0 13.136 1.955 30.275-11.437 17.139-13.391 37.217-.488 37.217-.488s8.323 11.36 9.78 18.986c1.457 7.627 5.341 9.715 13.667 3.573 0 0 2.826-7.699-6.51-16.636-9.337-8.937-16.024-15.652-16.424-24.441-.4-8.79 1.629-21.653 16.691-31.848 15.063-10.195 37.3-17.327 46.866-24.681 9.567-7.354 11.588-11.122 11.588-11.122s-4.875 8.443 18.392 32.517c23.267 24.074 16.508 38.987 16.508 38.987s-2.972 22.11-40.265 30.342c0 0-35.143 10.786-11.771 20.655 0 0 11.722-5.878 28.675-16.678 16.953-10.8 36.773 9.896 44.67 25.867 7.806 15.996 24.413 21.42 24.413 21.42z" fill="#38d39f" fill-rule="evenodd" data-name="Path 202"/><path d="M30.584 747.654l.158-.14c2.902 4.99-7.153 30.954-16.15 51.745l-.206-.043c12.77-29.33 18.509-47.684 16.198-51.562z" fill="#444053" fill-rule="evenodd" data-name="Path 203"/><path d="M14.677 798.845l.14.158c-7.164 16.683-16.356 36.744-23.96 51.785-.686 1.455-1.463 2.934-2.033 4.456l-.347-.2a61.5 61.5 0 012.124-4.48c7.513-15.017 17.003-35.06 24.076-51.719z" fill="#444053" fill-rule="evenodd" data-name="Path 204"/><path d="M-11.414 854.72l.28.317c-13.17 30.024-4.249 68.795-4.151 69.16l-5.467-3.62c-.031-.48-3.966-35.6 9.338-65.856z" fill="#444053" fill-rule="evenodd" data-name="Path 205"/><path d="M89.67 869.285s-26.602-5.875-43.673 3.392c-17.07 9.267-63.333.447-63.333.447s-19.329-2.447-24.946-9.546c0 0-15.347-9.477-17.721-15.783-2.374-6.305-18.475-19.687-26.192-18.206" stroke-linejoin="round" stroke-linecap="round" stroke="#444053" fill="transparent" data-name="Path 206"/><path d="M89.425 881.865s-13.895-4.783-14.995-14.363" stroke-linejoin="round" stroke-linecap="round" stroke="#444053" fill="transparent" data-name="Path 207"/><path d="M74.125 897.013s-18.513-1.59-26.584-25.141" stroke-linejoin="round" stroke-linecap="round" stroke="#444053" fill="transparent" data-name="Path 208"/><path d="M48.603 910.5s-19.623-9.017-20.59-33.787" stroke-linejoin="round" stroke-linecap="round" stroke="#444053" fill="transparent" data-name="Path 209"/><path d="M14.187 912.682s-16.685-19.58-11.11-36.718" stroke-linejoin="round" stroke-linecap="round" stroke="#444053" fill="transparent" data-name="Path 210"/><path d="M85.985 854.434s-11.105 7.082-6.816 12.874" stroke-linejoin="round" stroke-linecap="round" stroke="#444053" fill="transparent" data-name="Path 211"/><path d="M65.384 836.294s-14.935 9.574-9.14 32.66" stroke-linejoin="round" stroke-linecap="round" stroke="#444053" fill="transparent" data-name="Path 212"/><path d="M41.228 836.998s-9.956 22.32-4.413 38.628" stroke-linejoin="round" stroke-linecap="round" stroke="#444053" fill="transparent" data-name="Path 213"/><path d="M17.161 851.17s-11.013 18.008-6.996 25.34" stroke-linejoin="round" stroke-linecap="round" stroke="#444053" fill="transparent" data-name="Path 214"/><path d="M6.993 848.615s-13.114 6.154-16.343 2.13" stroke-linejoin="round" stroke-linecap="round" stroke="#444053" fill="transparent" data-name="Path 215"/><path d="M-15.45 836.737s9.492 7.331 10.687 4.86" stroke-linejoin="round" stroke-linecap="round" stroke="#444053" fill="transparent" data-name="Path 216"/><path d="M52.13 812.372s-34.162 11.891-44.817 3.503" stroke-linejoin="round" stroke-linecap="round" stroke="#444053" fill="transparent" data-name="Path 217"/><path d="M-35.238 792.08s25.715 30.652 38.77 31.945" stroke-linejoin="round" stroke-linecap="round" stroke="#444053" fill="transparent" data-name="Path 218"/><path d="M-22.562 770.79s18.663 29.513 33.782 36.314" stroke-linejoin="round" stroke-linecap="round" stroke="#444053" fill="transparent" data-name="Path 219"/><path d="M59.68 781.8s-23.424 18.4-42.351 11.25" stroke-linejoin="round" stroke-linecap="round" stroke-width=".75" stroke="#444053" fill="transparent" data-name="Path 220"/><path d="M-.86 757.643s12.376 22.104 22.125 25.651" stroke-linejoin="round" stroke-linecap="round" stroke-width=".75" stroke="#444053" fill="transparent" data-name="Path 221"/><path d="M48.553 756.331s-13.354 9.64-20.091 6.752" stroke-linejoin="round" stroke-linecap="round" stroke-width=".75" stroke="#444053" fill="transparent" data-name="Path 222"/><path d="M-26.143 847.913s5.548 20.707.283 23.682" stroke-linejoin="round" stroke-linecap="round" stroke="#444053" fill="transparent" data-name="Path 223"/><path d="M-64.957 886.96s22.863-4.074 30.09-18.33" stroke-linejoin="round" stroke-linecap="round" stroke="#444053" fill="transparent" data-name="Path 224"/><path d="M-38.441 825.006s.24 22.423-13.205 32.087" stroke-linejoin="round" stroke-linecap="round" stroke="#444053" fill="transparent" data-name="Path 225"/><path d="M-84.281 868.477s17.247 1.245 27.19-16.378" stroke-linejoin="round" stroke-linecap="round" stroke="#444053" fill="transparent" data-name="Path 226"/><path d="M-60.886 811.662s3.307 18.179-4.23 29.095" stroke-linejoin="round" stroke-linecap="round" stroke="#444053" fill="transparent" data-name="Path 227"/><path d="M-90.902 841.214s13.16-3.429 15.113-8.547" stroke-linejoin="round" stroke-linecap="round" stroke="#444053" fill="transparent" data-name="Path 228"/></g><g data-name="abffebd3-2ac6-4c6b-a0d4-e62621854ed7_1_"><path d="M-23.481 747.17s13.766-26.392 8.015-48.93a45.137 45.137 0 011.893-28.454c1.793-4.274 3.968-8.352 6.495-12.278" stroke-linejoin="round" stroke-linecap="round" stroke-width="2" stroke="#535461" fill="transparent" data-name="Path 114"/><path d="M-10.568 643.338c-.691 3.432 3.588 14.614 3.588 14.614s8.166-8.73 8.857-12.16c.764-3.416-1.439-6.809-4.87-7.5-3.416-.764-6.808 1.439-7.5 4.87-.044.03-.06.103-.075.176z" fill="#38d39f" fill-rule="evenodd" data-name="Path 115"/><path d="M-24.605 660.323c1.275 3.234 10.962 10.333 10.962 10.333s2.12-11.784.845-15.018c-1.275-3.233-4.976-4.828-8.254-3.524-3.307 1.26-4.857 4.931-3.553 8.21z" fill="#38d39f" fill-rule="evenodd" data-name="Path 116"/><path d="M-30.563 692.876c2.735 2.16 14.633 3.38 14.633 3.38s-4.116-11.225-6.85-13.383c-2.78-2.13-6.727-1.66-8.886 1.074-2.174 2.808-1.676 6.8 1.103 8.93z" fill="#38d39f" fill-rule="evenodd" data-name="Path 117"/><path d="M-29.513 718.531c2.375 2.583 13.88 5.836 13.88 5.836s-2.162-11.732-4.492-14.344c-2.376-2.582-6.374-2.778-8.956-.403-2.583 2.375-2.779 6.374-.432 8.911z" fill="#38d39f" fill-rule="evenodd" data-name="Path 118"/><path d="M-.75 673.897c-2.946 1.913-14.877 2.109-14.877 2.109s5.032-10.82 7.978-12.733a6.315 6.315 0 018.761 1.863 6.315 6.315 0 01-1.862 8.76z" fill="#38d39f" fill-rule="evenodd" data-name="Path 119"/><path d="M.099 703.934c-3.392.933-14.837-2.423-14.837-2.423s8.078-8.863 11.426-9.768c3.392-.933 6.867.998 7.8 4.39.95 3.318-1.027 6.823-4.39 7.8z" fill="#38d39f" fill-rule="evenodd" data-name="Path 120"/><path d="M-3.089 733.228c-3.162 1.483-15.03.114-15.03.114s6.455-10.093 9.618-11.576c3.162-1.482 6.954-.137 8.437 3.025 1.482 3.162.153 6.881-3.025 8.437z" fill="#38d39f" fill-rule="evenodd" data-name="Path 121"/><path d="M-10.568 643.338c-.691 3.432 3.588 14.614 3.588 14.614s8.166-8.73 8.857-12.16c.764-3.416-1.439-6.809-4.87-7.5-3.416-.764-6.808 1.439-7.5 4.87-.044.03-.06.103-.075.176z" fill-rule="evenodd" data-name="Path 122"/><path d="M-24.605 660.323c1.275 3.234 10.962 10.333 10.962 10.333s2.12-11.784.845-15.018c-1.275-3.233-4.976-4.828-8.254-3.524-3.307 1.26-4.857 4.931-3.553 8.21z" fill-rule="evenodd" data-name="Path 123"/><path d="M-30.563 692.876c2.735 2.16 14.633 3.38 14.633 3.38s-4.116-11.225-6.85-13.383c-2.78-2.13-6.727-1.66-8.886 1.074-2.174 2.808-1.676 6.8 1.103 8.93z" fill-rule="evenodd" data-name="Path 124"/><path d="M-29.513 718.531c2.375 2.583 13.88 5.836 13.88 5.836s-2.162-11.732-4.492-14.344c-2.376-2.582-6.374-2.778-8.956-.403-2.583 2.375-2.779 6.374-.432 8.911z" fill-rule="evenodd" data-name="Path 125"/><path d="M-.75 673.897c-2.946 1.913-14.877 2.109-14.877 2.109s5.032-10.82 7.978-12.733a6.315 6.315 0 018.761 1.863 6.315 6.315 0 01-1.862 8.76z" fill-rule="evenodd" data-name="Path 126"/><path d="M.099 703.934c-3.392.933-14.837-2.423-14.837-2.423s8.078-8.863 11.426-9.768c3.392-.933 6.867.998 7.8 4.39.95 3.318-1.027 6.823-4.39 7.8z" fill-rule="evenodd" data-name="Path 127"/><path d="M-3.089 733.228c-3.162 1.483-15.03.114-15.03.114s6.455-10.093 9.618-11.576c3.162-1.482 6.954-.137 8.437 3.025 1.482 3.162.153 6.881-3.025 8.437z" fill-rule="evenodd" data-name="Path 128"/><path d="M-23.514 746.239s23.297-18.556 27.176-41.51a44.701 44.701 0 0113.25-25.231 75.068 75.068 0 0110.865-8.58" stroke-linejoin="round" stroke-linecap="round" stroke-width="2" stroke="#535461" fill="transparent" data-name="Path 129"/><path d="M30.387 656.468c-1.998 2.884-2.643 14.79-2.643 14.79s10.995-4.665 13.022-7.505a6.376 6.376 0 00-1.547-8.832c-2.884-1.998-6.834-1.337-8.832 1.547z" fill="#38d39f" fill-rule="evenodd" data-name="Path 130"/><path d="M10.663 666.358c-.13 3.512 5.827 13.858 5.827 13.858s6.718-9.884 6.849-13.396a6.327 6.327 0 00-6.107-6.569 6.327 6.327 0 00-6.569 6.107z" fill="#38d39f" fill-rule="evenodd" data-name="Path 131"/><path d="M-7.956 693.68c1.66 3.047 12.011 9.017 12.011 9.017s.764-11.919-.853-14.994c-1.645-3.12-5.484-4.244-8.604-2.599-3.047 1.662-4.244 5.485-2.554 8.576z" fill="#38d39f" fill-rule="evenodd" data-name="Path 132"/><path d="M-17.427 717.6c1.141 3.32 10.335 10.93 10.335 10.93s2.783-11.644 1.716-14.949c-.934-3.391-4.438-5.367-7.801-4.39-3.392.934-5.368 4.439-4.39 7.801.042.163.114.37.14.607z" fill="#38d39f" fill-rule="evenodd" data-name="Path 133"/><path d="M26.991 688.373c-3.46.534-14.476-4.116-14.476-4.116s8.981-7.863 12.487-8.426a6.383 6.383 0 017.274 5.24c.518 3.534-1.824 6.768-5.285 7.302z" fill="#38d39f" fill-rule="evenodd" data-name="Path 134"/><path d="M15.614 716.196c-3.434-.499-12.596-8.256-12.596-8.256s10.952-4.828 14.415-4.285c3.434.5 5.86 3.747 5.36 7.18-.543 3.463-3.746 5.86-7.18 5.361z" fill="#38d39f" fill-rule="evenodd" data-name="Path 135"/><path d="M.81 741.675c-3.485.106-13.775-5.968-13.775-5.968s9.985-6.61 13.5-6.672c3.485-.106 6.433 2.676 6.494 6.19.061 3.514-2.734 6.344-6.219 6.45z" fill="#38d39f" fill-rule="evenodd" data-name="Path 136"/></g></g></svg>