<svg xmlns="http://www.w3.org/2000/svg" viewBox="0 0 256 256" width="50" height="50"><path d="M40.96 15.41c-17.766 0-30.67 10.647-30.67 25.29 0 14.694 13.21 25.81 30.67 25.81 17.766 0 30.67-10.852 30.67-26.11-.82-14.694-13.467-24.99-30.67-24.99zM15.36 76.8c-2.816 0-5.12 2.304-5.12 5.12V230.4c0 2.816 2.304 5.12 5.12 5.12h51.2c2.816 0 5.12-2.304 5.12-5.12V81.92c0-2.816-2.304-5.12-5.12-5.12zm76.8 0c-2.816 0-5.12 2.304-5.12 5.12V230.4c0 2.816 2.304 5.12 5.12 5.12h46.08a5.122 5.122 0 005.12-5.12v-79.36c0-12.134 9.322-22.018 21.2-22.94.614-.102 1.226-.1 1.84-.1.614 0 1.226-.002 1.84.1 11.878.922 21.2 10.806 21.2 22.94v79.36a5.122 5.122 0 005.12 5.12h46.08c2.816 0 5.12-2.304 5.12-5.12v-87.04c0-33.126-17.771-66.56-57.4-66.56-18.022 0-31.637 6.964-39.88 12.75v-7.63c0-2.816-2.304-5.12-5.12-5.12z" fill="#3f3d56" font-family="none" font-weight="none" font-size="none" text-anchor="none"/></svg>