<svg xmlns="http://www.w3.org/2000/svg" viewBox="0 0 256 256" width="50" height="50"><path d="M236.221 33.546c-3.84-3.256-9.87-3.722-16.107-1.218h-.01c-6.559 2.631-185.657 79.452-192.948 82.59-1.326.461-12.907 4.782-11.714 14.408 1.065 8.678 10.373 12.273 11.51 12.687l45.532 15.59c3.02 10.057 14.157 47.156 16.62 55.082 1.535 4.94 4.039 11.433 8.427 12.77 3.85 1.484 7.68.127 10.158-1.819l27.837-25.82 44.939 35.047 1.07.64c3.051 1.351 5.975 2.027 8.765 2.027 2.156 0 4.224-.404 6.2-1.213 6.733-2.765 9.426-9.18 9.708-9.907l33.567-174.475c2.048-9.318-.799-14.06-3.554-16.389zM112.64 163.84L97.28 204.8l-15.36-51.2 117.76-87.04z" fill="#3f3d56" font-family="none" font-weight="none" font-size="none" text-anchor="none"/></svg>